<?xml version="1.0" encoding="utf-8"?>
<!-- Generator: Adobe Illustrator 16.0.0, SVG Export Plug-In . SVG Version: 6.00 Build 0)  -->
<!DOCTYPE svg PUBLIC "-//W3C//DTD SVG 1.1//EN" "http://www.w3.org/Graphics/SVG/1.1/DTD/svg11.dtd">
<svg version="1.1" id="Layer_1" xmlns="http://www.w3.org/2000/svg" xmlns:xlink="http://www.w3.org/1999/xlink" x="0px" y="0px"
	 width="1100.133px" height="872.899px" viewBox="0 0 1100.133 872.899" enable-background="new 0 0 1100.133 872.899"
	 xml:space="preserve">
<rect x="0.133" y="807.899" width="1100" height="65"/>
<g>
	<g>
		<g>
			<path fill="#FFFFFF" d="M367.913,834.023h4.277c3.361,0,6.127,0.884,8.307,2.626c2.192,1.759,3.286,4.262,3.286,7.526
				c0,3.349-1.084,5.914-3.257,7.693c-2.179,1.785-4.979,2.664-8.418,2.664h-4.194V834.023z M370.489,852.201h0.906
				c1.332,0,2.594-0.13,3.782-0.395c1.188-0.267,2.223-0.704,3.115-1.332c0.88-0.639,1.59-1.452,2.121-2.453
				c0.527-1.008,0.793-2.251,0.793-3.738c0-1.47-0.259-2.727-0.782-3.768c-0.52-1.048-1.24-1.861-2.182-2.444
				c-0.924-0.591-1.954-1.029-3.078-1.298c-1.129-0.284-2.383-0.415-3.77-0.415h-0.906V852.201z"/>
			<path fill="#FFFFFF" d="M387.568,848.582c0.035,1.136,0.405,2.129,1.093,2.969c0.716,0.835,1.635,1.243,2.766,1.243
				c0.897,0,1.629-0.206,2.209-0.613c0.575-0.417,1.12-1.032,1.63-1.857l2.086,1.172c-0.604,1.086-1.437,1.929-2.488,2.563
				c-1.051,0.61-2.203,0.911-3.463,0.911c-1.922,0-3.456-0.627-4.605-1.901c-1.133-1.304-1.704-2.885-1.704-4.793
				c0-1.997,0.544-3.655,1.625-4.943c1.06-1.277,2.602-1.897,4.633-1.897c1.977,0,3.458,0.62,4.468,1.897
				c1.02,1.264,1.535,2.896,1.535,4.872v0.379H387.568z M394.885,846.737c-0.154-0.984-0.519-1.769-1.139-2.331
				c-0.614-0.571-1.412-0.862-2.396-0.862c-0.472,0-0.919,0.064-1.328,0.226c-0.416,0.168-0.774,0.395-1.097,0.672
				c-0.314,0.294-0.583,0.634-0.8,1.022c-0.211,0.403-0.348,0.813-0.411,1.273H394.885z"/>
			<path fill="#FFFFFF" d="M404.618,844.721c-0.374-0.753-0.917-1.123-1.646-1.123c-0.345,0-0.66,0.123-0.932,0.366
				c-0.276,0.251-0.415,0.549-0.415,0.884c0,0.326,0.107,0.615,0.315,0.836c0.207,0.229,0.496,0.438,0.864,0.637
				c0.24,0.106,0.421,0.203,0.552,0.247c0.123,0.075,0.332,0.172,0.63,0.304c0.143,0.06,0.274,0.132,0.38,0.164
				c0.105,0.03,0.191,0.066,0.252,0.102c0.906,0.419,1.636,0.894,2.167,1.444c0.522,0.535,0.795,1.275,0.795,2.175
				c0,1.201-0.445,2.208-1.318,3.013c-0.857,0.81-1.896,1.199-3.096,1.199c-0.502,0-0.975-0.064-1.428-0.201
				c-0.451-0.127-0.877-0.323-1.278-0.569c-0.395-0.247-0.736-0.544-1.041-0.897c-0.302-0.363-0.534-0.759-0.7-1.178l2.108-0.949
				c0.604,1.086,1.38,1.62,2.338,1.62c0.387,0,0.737-0.097,1.057-0.31c0.335-0.208,0.581-0.466,0.733-0.784
				c0.152-0.332,0.19-0.664,0.096-1.049c-0.091-0.355-0.37-0.712-0.846-1.039l-2.422-1.279c-0.416-0.213-0.778-0.431-1.089-0.653
				c-0.309-0.224-0.567-0.45-0.765-0.689c-0.207-0.25-0.352-0.518-0.458-0.81c-0.095-0.308-0.148-0.65-0.148-1.054
				c0-1.036,0.363-1.909,1.101-2.618c0.732-0.718,1.618-1.075,2.682-1.075c1.61,0,2.777,0.727,3.506,2.225L404.618,844.721z"/>
			<path fill="#FFFFFF" d="M413.465,835.982c0,0.451-0.163,0.844-0.493,1.164c-0.329,0.334-0.733,0.491-1.202,0.491
				c-0.481,0-0.878-0.157-1.21-0.491c-0.329-0.32-0.491-0.713-0.491-1.164c0-0.48,0.162-0.881,0.491-1.216
				c0.332-0.337,0.729-0.49,1.21-0.49c0.468,0,0.873,0.153,1.202,0.49C413.302,835.101,413.465,835.501,413.465,835.982z
				 M413.007,854.533h-2.477v-12.727h2.477V854.533z"/>
			<path fill="#FFFFFF" d="M428.955,854.302c0,2.383-0.456,4.248-1.37,5.578c-0.921,1.302-2.547,1.951-4.882,1.951
				c-1.81,0-3.29-0.518-4.441-1.551c-1.132-1.029-1.723-2.433-1.75-4.216h2.458c0,1.145,0.357,2.021,1.054,2.659
				c0.715,0.616,1.642,0.933,2.792,0.933c1.408,0,2.371-0.405,2.893-1.235c0.52-0.82,0.776-1.96,0.776-3.453v-2.427h-0.057
				c-0.508,0.779-1.145,1.371-1.902,1.794c-0.759,0.427-1.573,0.633-2.448,0.633c-1.904,0-3.408-0.657-4.504-1.979
				c-1.089-1.33-1.629-2.954-1.629-4.899c0-1.84,0.547-3.389,1.66-4.672c1.117-1.329,2.569-1.984,4.367-1.984
				c1.872,0,3.373,0.854,4.457,2.535h0.057v-2.162h2.471V854.302z M422.467,852.793c1.29,0,2.305-0.442,3.03-1.326
				c0.748-0.912,1.128-2.014,1.128-3.293c0-1.273-0.38-2.351-1.128-3.243c-0.725-0.878-1.74-1.333-3.03-1.333
				c-1.231,0-2.218,0.455-2.97,1.37c-0.735,0.889-1.102,1.956-1.102,3.206c0,1.279,0.366,2.367,1.102,3.263
				C420.25,852.351,421.236,852.793,422.467,852.793z"/>
			<path fill="#FFFFFF" d="M434.627,843.513h0.057c0.355-0.682,0.892-1.183,1.585-1.545c0.7-0.371,1.453-0.535,2.28-0.535
				c0.837,0,1.542,0.116,2.14,0.373c0.576,0.247,1.053,0.608,1.404,1.086c0.36,0.477,0.615,1.045,0.771,1.727
				c0.155,0.676,0.23,1.459,0.23,2.319v7.595h-2.467v-7.289c0-1.255-0.184-2.169-0.543-2.745c-0.37-0.602-1.128-0.9-2.276-0.9
				c-0.423,0-0.782,0.043-1.067,0.123c-0.299,0.075-0.554,0.193-0.771,0.349c-0.221,0.156-0.401,0.336-0.551,0.531
				c-0.139,0.203-0.284,0.419-0.408,0.664c-0.055,0.115-0.105,0.289-0.156,0.487c-0.039,0.194-0.08,0.401-0.116,0.604
				c-0.039,0.212-0.071,0.417-0.085,0.634c-0.019,0.215-0.028,0.376-0.028,0.5v1.188v5.854h-2.466v-12.727h2.466V843.513z"/>
			<path fill="#FFFFFF" d="M454.229,830.921h2.463v12.998h0.054c1.13-1.668,2.621-2.486,4.468-2.486
				c1.786,0,3.242,0.655,4.361,1.984c1.112,1.283,1.668,2.832,1.668,4.672c0,1.945-0.553,3.569-1.642,4.899
				c-1.102,1.322-2.602,1.979-4.496,1.979c-0.875,0-1.696-0.206-2.458-0.633c-0.754-0.423-1.39-1.015-1.902-1.794h-0.054v1.991
				h-2.463V830.921z M460.615,852.793c1.295,0,2.305-0.442,3.038-1.326c0.748-0.912,1.121-2.014,1.121-3.293
				c0-1.273-0.373-2.351-1.121-3.243c-0.733-0.878-1.743-1.333-3.038-1.333c-1.225,0-2.217,0.455-2.964,1.37
				c-0.73,0.889-1.101,1.956-1.101,3.206c0,1.279,0.371,2.367,1.101,3.263C458.397,852.351,459.39,852.793,460.615,852.793z"/>
			<path fill="#FFFFFF" d="M467.597,841.806h2.879l4.328,8.074l4.035-8.074h2.768l-10.395,20.025h-2.795l5.054-9.473
				L467.597,841.806z"/>
			<path fill="#FFFFFF" d="M494.048,849.385l-2.355,5.147h-2.77l9.866-21.377l9.873,21.377h-2.766l-2.363-5.147H494.048z
				 M498.789,838.754l-3.671,8.312h7.344L498.789,838.754z"/>
			<path fill="#FFFFFF" d="M512.682,854.533h-2.467v-23.611h2.467V854.533z"/>
			<path fill="#FFFFFF" d="M518.763,854.533h-2.459v-23.611h2.459V854.533z"/>
			<path fill="#FFFFFF" d="M528.14,844.804v2.03h-5.992v-2.03H528.14z"/>
			<path fill="#FFFFFF" d="M537.74,833.395c-0.77-0.355-1.322-0.507-1.645-0.507c-0.528,0-0.917,0.146-1.152,0.496
				c-0.242,0.334-0.396,0.744-0.492,1.231c-0.05,0.364-0.084,0.65-0.102,0.865c-0.009,0.196-0.016,0.497-0.016,0.85v5.476h3.406
				v2.284h-3.406v10.442h-2.459V844.09h-1.126v-2.284h1.126v-6.204c0-3.341,1.375-5.01,4.136-5.01c0.606,0,1.175,0.106,1.73,0.329
				V833.395z"/>
			<path fill="#FFFFFF" d="M541.548,843.875h0.071c0.321-0.763,0.774-1.367,1.383-1.792c0.604-0.451,1.318-0.65,2.131-0.65
				c0.678,0,1.354,0.199,2.031,0.616l-1.124,2.233c-0.394-0.346-0.907-0.514-1.506-0.514c-1.257,0-2.101,0.51-2.52,1.514
				c-0.185,0.481-0.313,0.96-0.377,1.41c-0.056,0.458-0.089,0.986-0.089,1.581v6.259h-2.462v-12.727h2.462V843.875z"/>
			<path fill="#FFFFFF" d="M550.014,848.582c0.038,1.136,0.396,2.129,1.093,2.969c0.722,0.835,1.635,1.243,2.774,1.243
				c0.898,0,1.631-0.206,2.208-0.613c0.573-0.417,1.116-1.032,1.632-1.857l2.08,1.172c-0.603,1.086-1.426,1.929-2.484,2.563
				c-1.047,0.61-2.199,0.911-3.468,0.911c-1.907,0-3.45-0.627-4.601-1.901c-1.126-1.304-1.7-2.885-1.7-4.793
				c0-1.997,0.538-3.655,1.625-4.943c1.051-1.277,2.593-1.897,4.621-1.897c1.985,0,3.475,0.62,4.479,1.897
				c1.027,1.264,1.528,2.896,1.528,4.872v0.379H550.014z M557.333,846.737c-0.148-0.984-0.524-1.769-1.14-2.331
				c-0.613-0.571-1.411-0.862-2.4-0.862c-0.469,0-0.919,0.064-1.319,0.226c-0.412,0.168-0.78,0.395-1.102,0.672
				c-0.319,0.294-0.585,0.634-0.796,1.022c-0.199,0.403-0.353,0.813-0.423,1.273H557.333z"/>
			<path fill="#FFFFFF" d="M563.39,848.582c0.039,1.136,0.406,2.129,1.1,2.969c0.71,0.835,1.627,1.243,2.76,1.243
				c0.903,0,1.637-0.206,2.212-0.613c0.575-0.417,1.127-1.032,1.631-1.857l2.076,1.172c-0.599,1.086-1.423,1.929-2.47,2.563
				c-1.05,0.61-2.214,0.911-3.476,0.911c-1.912,0-3.448-0.627-4.601-1.901c-1.13-1.304-1.698-2.885-1.698-4.793
				c0-1.997,0.534-3.655,1.618-4.943c1.059-1.277,2.601-1.897,4.642-1.897c1.965,0,3.455,0.62,4.457,1.897
				c1.026,1.264,1.527,2.896,1.527,4.872v0.379H563.39z M570.716,846.737c-0.146-0.984-0.538-1.769-1.143-2.331
				c-0.617-0.571-1.419-0.862-2.39-0.862c-0.487,0-0.928,0.064-1.336,0.226c-0.415,0.168-0.786,0.395-1.099,0.672
				c-0.321,0.294-0.595,0.634-0.793,1.022c-0.213,0.403-0.355,0.813-0.427,1.273H570.716z"/>
			<path fill="#FFFFFF" d="M581.149,844.804v2.03h-5.993v-2.03H581.149z"/>
			<path fill="#FFFFFF" d="M593.95,852.542h-0.044c-0.52,0.779-1.149,1.371-1.914,1.794c-0.757,0.427-1.574,0.633-2.446,0.633
				c-1.912,0-3.403-0.657-4.496-1.979c-1.1-1.33-1.646-2.954-1.646-4.899c0-1.84,0.55-3.389,1.668-4.672
				c1.119-1.329,2.563-1.984,4.365-1.984c1.845,0,3.33,0.818,4.47,2.486h0.044v-12.998h2.462v23.611h-2.462V852.542z
				 M589.917,852.793c1.309,0,2.326-0.442,3.053-1.326c0.744-0.912,1.123-2.014,1.123-3.293c0-1.273-0.379-2.351-1.123-3.243
				c-0.727-0.878-1.744-1.333-3.053-1.333c-1.216,0-2.203,0.455-2.952,1.37c-0.731,0.889-1.101,1.956-1.101,3.206
				c0,1.279,0.369,2.367,1.101,3.263C587.714,852.351,588.702,852.793,589.917,852.793z"/>
			<path fill="#FFFFFF" d="M600.444,843.378c1.336-1.295,2.966-1.945,4.887-1.945c1.912,0,3.543,0.65,4.846,1.945
				c1.336,1.31,2.004,2.921,2.004,4.824c0,1.905-0.668,3.508-2.004,4.815c-1.303,1.31-2.934,1.95-4.846,1.95
				c-1.921,0-3.551-0.641-4.887-1.95c-1.306-1.308-1.962-2.91-1.962-4.815C598.482,846.299,599.138,844.688,600.444,843.378z
				 M600.935,848.203c0,1.179,0.438,2.221,1.296,3.128c0.84,0.87,1.873,1.302,3.1,1.302c1.192,0,2.235-0.432,3.092-1.302
				c0.868-0.907,1.297-1.949,1.297-3.128c0-1.199-0.429-2.242-1.297-3.128c-0.856-0.877-1.899-1.306-3.092-1.306
				c-1.227,0-2.26,0.429-3.1,1.306C601.373,845.96,600.935,847.003,600.935,848.203z"/>
			<path fill="#FFFFFF" d="M618.813,849.914l3.779-8.816l3.759,8.816l3.724-8.107h2.803l-6.526,13.162l-3.759-8.51l-3.779,8.51
				l-6.52-13.162h2.794L618.813,849.914z"/>
			<path fill="#FFFFFF" d="M636.57,843.513h0.053c0.363-0.682,0.9-1.183,1.6-1.545c0.684-0.371,1.454-0.535,2.27-0.535
				c0.845,0,1.557,0.116,2.134,0.373c0.586,0.247,1.059,0.608,1.407,1.086c0.376,0.477,0.625,1.045,0.78,1.727
				c0.157,0.676,0.225,1.459,0.225,2.319v7.595h-2.463v-7.289c0-1.255-0.174-2.169-0.541-2.745c-0.378-0.602-1.129-0.9-2.283-0.9
				c-0.42,0-0.772,0.043-1.075,0.123c-0.279,0.075-0.54,0.193-0.758,0.349c-0.219,0.156-0.409,0.336-0.554,0.531
				c-0.149,0.203-0.275,0.419-0.416,0.664c-0.044,0.115-0.1,0.289-0.139,0.487c-0.048,0.194-0.085,0.401-0.134,0.604
				c-0.027,0.212-0.053,0.417-0.081,0.634c-0.009,0.215-0.024,0.376-0.024,0.5v1.188v5.854h-2.469v-12.727h2.469V843.513z"/>
			<path fill="#FFFFFF" d="M651.015,854.533h-2.465v-23.611h2.465V854.533z"/>
			<path fill="#FFFFFF" d="M655.347,843.378c1.337-1.295,2.965-1.945,4.882-1.945c1.907,0,3.537,0.65,4.85,1.945
				c1.328,1.31,1.995,2.921,1.995,4.824c0,1.905-0.667,3.508-1.995,4.815c-1.313,1.31-2.942,1.95-4.85,1.95
				c-1.917,0-3.545-0.641-4.882-1.95c-1.319-1.308-1.976-2.91-1.976-4.815C653.372,846.299,654.028,844.688,655.347,843.378z
				 M655.843,848.203c0,1.179,0.431,2.221,1.286,3.128c0.839,0.87,1.871,1.302,3.1,1.302c1.211,0,2.235-0.432,3.088-1.302
				c0.867-0.907,1.302-1.949,1.302-3.128c0-1.199-0.435-2.242-1.302-3.128c-0.853-0.877-1.877-1.306-3.088-1.306
				c-1.229,0-2.261,0.429-3.1,1.306C656.274,845.96,655.843,847.003,655.843,848.203z"/>
			<path fill="#FFFFFF" d="M681.359,854.533h-2.468v-1.991h-0.054c-1.091,1.626-2.547,2.427-4.357,2.427
				c-1.884,0-3.382-0.657-4.503-1.979c-1.092-1.33-1.627-2.954-1.627-4.899c0-1.84,0.553-3.389,1.662-4.672
				c1.119-1.329,2.58-1.984,4.384-1.984c1.831,0,3.321,0.818,4.441,2.486h0.054v-2.113h2.468V854.533z M674.865,852.793
				c1.292,0,2.312-0.442,3.05-1.326c0.738-0.912,1.11-2.014,1.11-3.293c0-1.273-0.372-2.351-1.11-3.243
				c-0.738-0.878-1.758-1.333-3.05-1.333c-1.222,0-2.219,0.455-2.96,1.37c-0.733,0.889-1.097,1.956-1.097,3.206
				c0,1.279,0.363,2.367,1.097,3.263C672.646,852.351,673.643,852.793,674.865,852.793z"/>
			<path fill="#FFFFFF" d="M694.135,852.542h-0.061c-0.512,0.779-1.149,1.371-1.906,1.794c-0.751,0.427-1.574,0.633-2.45,0.633
				c-1.904,0-3.397-0.657-4.496-1.979c-1.098-1.33-1.64-2.954-1.64-4.899c0-1.84,0.552-3.389,1.676-4.672
				c1.11-1.329,2.556-1.984,4.345-1.984c1.85,0,3.334,0.818,4.472,2.486h0.061v-12.998h2.462v23.611h-2.462V852.542z
				 M690.107,852.793c1.296,0,2.308-0.442,3.037-1.326c0.751-0.912,1.119-2.014,1.119-3.293c0-1.273-0.368-2.351-1.119-3.243
				c-0.729-0.878-1.741-1.333-3.037-1.333c-1.23,0-2.21,0.455-2.97,1.37c-0.721,0.889-1.086,1.956-1.086,3.206
				c0,1.279,0.365,2.367,1.086,3.263C687.897,852.351,688.876,852.793,690.107,852.793z"/>
			<path fill="#FFFFFF" d="M703.667,853.396c0,0.436-0.145,0.814-0.458,1.116c-0.313,0.303-0.694,0.456-1.133,0.456
				c-0.428,0-0.822-0.153-1.126-0.456c-0.302-0.302-0.468-0.681-0.468-1.116c0-0.417,0.166-0.791,0.468-1.113
				c0.304-0.301,0.698-0.459,1.126-0.459c0.438,0,0.819,0.158,1.133,0.459C703.523,852.605,703.667,852.979,703.667,853.396z"/>
			<path fill="#FFFFFF" d="M717.154,845.427c-1.02-1.145-2.249-1.724-3.675-1.724c-1.189,0-2.191,0.46-3.035,1.347
				c-0.825,0.896-1.234,1.953-1.234,3.124c0,1.329,0.409,2.395,1.234,3.231c0.854,0.854,1.917,1.291,3.193,1.291
				c1.319,0,2.497-0.574,3.517-1.698v3.132c-1.058,0.567-2.235,0.838-3.53,0.838c-1.899,0-3.531-0.633-4.882-1.933
				c-1.335-1.272-1.998-2.854-1.998-4.762c0-1.953,0.663-3.586,1.998-4.896c1.336-1.295,2.998-1.945,5.011-1.945
				c1.322,0,2.46,0.271,3.401,0.835V845.427z"/>
			<path fill="#FFFFFF" d="M720.64,843.378c1.335-1.295,2.96-1.945,4.878-1.945c1.924,0,3.541,0.65,4.857,1.945
				c1.325,1.31,1.985,2.921,1.985,4.824c0,1.905-0.66,3.508-1.985,4.815c-1.316,1.31-2.934,1.95-4.857,1.95
				c-1.918,0-3.543-0.641-4.878-1.95c-1.315-1.308-1.98-2.91-1.98-4.815C718.66,846.299,719.325,844.688,720.64,843.378z
				 M721.132,848.203c0,1.179,0.415,2.221,1.285,3.128c0.841,0.87,1.872,1.302,3.101,1.302c1.203,0,2.24-0.432,3.098-1.302
				c0.853-0.907,1.284-1.949,1.284-3.128c0-1.199-0.432-2.242-1.284-3.128c-0.857-0.877-1.895-1.306-3.098-1.306
				c-1.229,0-2.26,0.429-3.101,1.306C721.547,845.96,721.132,847.003,721.132,848.203z"/>
			<path fill="#FFFFFF" d="M737,843.417h0.062c0.354-0.594,0.84-1.063,1.46-1.447c0.608-0.355,1.256-0.537,1.934-0.537
				c1.6,0,2.832,0.742,3.698,2.245c0.397-0.687,0.958-1.238,1.66-1.643c0.692-0.408,1.475-0.603,2.285-0.603
				c2.842,0,4.249,1.822,4.249,5.491v7.608h-2.463v-7.208c0-0.321-0.018-0.658-0.044-0.969c-0.032-0.315-0.075-0.619-0.152-0.929
				c-0.076-0.291-0.182-0.559-0.337-0.826c-0.141-0.245-0.341-0.473-0.592-0.682c-0.325-0.216-0.751-0.321-1.262-0.321
				c-0.518,0-0.955,0.105-1.309,0.321c-0.352,0.209-0.625,0.466-0.812,0.758c-0.207,0.291-0.354,0.688-0.461,1.128
				c-0.098,0.444-0.177,0.861-0.205,1.23c-0.019,0.355-0.037,0.776-0.037,1.238v6.259h-2.475v-6.741
				c0-0.437-0.001-0.788-0.025-1.079c-0.02-0.306-0.07-0.661-0.162-1.107c-0.089-0.469-0.207-0.801-0.355-1.028
				c-0.151-0.248-0.372-0.479-0.683-0.68c-0.313-0.196-0.688-0.299-1.125-0.299c-1.261,0-2.073,0.55-2.435,1.638
				c-0.168,0.505-0.278,0.991-0.339,1.431c-0.045,0.459-0.076,0.997-0.076,1.607v6.259h-2.462v-12.727H737V843.417z"/>
		</g>
		<g>
			<g>
				<path fill="#FFFFFF" d="M310.421,847.036c11.636,0,23.271,0,34.908,0c1.06,0,1.06-1.636,0-1.636c-11.636,0-23.271,0-34.908,0
					C309.364,845.4,309.364,847.036,310.421,847.036L310.421,847.036z"/>
			</g>
			<g>
				<path fill="#FFFFFF" d="M774.934,847.036c11.632,0,23.27,0,34.902,0c1.068,0,1.068-1.636,0-1.636c-11.633,0-23.271,0-34.902,0
					C773.883,845.4,773.883,847.036,774.934,847.036L774.934,847.036z"/>
			</g>
		</g>
	</g>
</g>
<g>
	<g>
		<defs>
			<rect id="SVGID_1_" x="-0.577" width="1100.386" height="808.368"/>
		</defs>
		<linearGradient id="SVGID_2_" gradientUnits="userSpaceOnUse" x1="-0.5767" y1="404.1841" x2="1099.8091" y2="404.1841">
			<stop  offset="0" style="stop-color:#E1DCE5"/>
			<stop  offset="1" style="stop-color:#F1CE93"/>
		</linearGradient>
		<use xlink:href="#SVGID_1_"  overflow="visible" fill="url(#SVGID_2_)"/>
		<clipPath id="SVGID_3_">
			<use xlink:href="#SVGID_1_"  overflow="visible"/>
		</clipPath>
		<linearGradient id="SVGID_4_" gradientUnits="userSpaceOnUse" x1="668.6655" y1="805.4224" x2="1187.1753" y2="805.4224">
			<stop  offset="0" style="stop-color:#FF8A00"/>
			<stop  offset="1" style="stop-color:#FFBC00"/>
		</linearGradient>
		<path clip-path="url(#SVGID_3_)" fill="url(#SVGID_4_)" d="M725.936,968.473c36.518,15.168,74.068,2.912,105.756,47.813
			c24.662,34.947,47.479,91.555,98.303,76.975c20.854-5.982,30.18-14.691,50.613-28.996c38.078-26.646,42.018-29.715,100.346-28.086
			c88.469,2.469,69.295-124.145,91.932-226.707c9.857-44.693,15.15-69.387,14.176-94.693c-2.551-66.195-55.59-72.313-81.568-87.174
			c-33.32-19.061-24.367-66.988-42.953-95.111c-43.75-66.234-53.764,84.998-172.125,8.232
			c-29.842-19.357-67.781-11.229-92.633,28.16c-33.438,52.99-15.637,113.572-57.57,162.141
			c-7.332,8.492-29.146,31.324-41.877,47.184C651.403,836.684,659.821,941.016,725.936,968.473z"/>
		<linearGradient id="SVGID_5_" gradientUnits="userSpaceOnUse" x1="-165.6958" y1="25.4858" x2="707.6724" y2="25.4858">
			<stop  offset="0" style="stop-color:#FF8A00"/>
			<stop  offset="1" style="stop-color:#FFBC00"/>
		</linearGradient>
		<path clip-path="url(#SVGID_3_)" fill="url(#SVGID_5_)" d="M496.895-325.323c-132.928,102.449-113.349,68.422-223.083,92.85
			c-113.559,25.277-96.998,102.961-154.2,171.09C48.9,22.844-33.443-151.496-66.776-65.558
			c-12.398,31.968-9.57,46.323-33.688,77.717c-10.47,13.625-46.558,33.917-61.209,95.563c-14.602,61.43,11.132,135.958,67.751,150.8
			c37.944,9.945,66.319,3.516,84.368,37.296C17.114,345.726,43.8,432.543,97.913,398.064
			c60.27-38.402,67.374-149.623,143.654-126.105c74.903,23.095,133.177,92.947,224.884,70.188
			c75.257-18.679,83.77-99.264,90.712-195.474c4.19-58.067,27.946-86.634,62.583-121.851
			c47.053-47.859,77.924-124.032,86.395-185.392c10.904-78.998-38-156.617-97.027-185.462
			C570.879-364.717,531.973-352.354,496.895-325.323z"/>
		<path clip-path="url(#SVGID_3_)" fill="#636363" d="M236.071,227.187c134.571-70.757,112.659-42.772,217.109-45.41
			c108.091-2.727,101.309-77.782,161.873-130.521c74.869-65.205,131.98,111.479,172.381,37.866
			c15.021-27.383,13.984-41.209,39.814-65.921c11.211-10.725,46.918-22.957,67.307-77.448
			c20.32-54.302,4.684-128.105-46.184-152.195c-34.09-16.145-61.109-15.356-74.121-49.976
			c-19.217-51.145-34.379-136.515-88.367-114.414c-60.125,24.615-78.99,126.455-147.128,90.732
			c-66.909-35.076-113.237-110.479-200.787-106.106c-71.847,3.59-88.636,76.765-105.69,164.72
			c-10.293,53.08-35.478,75.236-71.48,101.573C111.879-84.117,74.845-19.11,60.221,36.246
			c-18.83,71.265,17.951,152.159,69.503,189.674C163.115,250.217,200.562,245.855,236.071,227.187z"/>
		<path clip-path="url(#SVGID_3_)" fill="#636363" d="M436.922,1215.163c134.57-70.75,112.66-42.771,217.113-45.408
			c108.088-2.725,101.307-77.779,161.869-130.523c74.869-65.203,131.982,111.484,172.379,37.871
			c15.023-27.385,13.986-41.213,39.816-65.922c11.211-10.729,46.918-22.959,67.307-77.451
			c20.32-54.301,4.684-128.104-46.184-152.193c-34.09-16.145-61.109-15.357-74.115-49.979
			c-19.223-51.143-34.391-136.512-88.373-114.41c-60.125,24.615-78.984,126.451-147.125,90.73
			c-66.914-35.076-113.24-110.48-200.791-106.104c-71.847,3.59-88.636,76.768-105.69,164.717
			c-10.293,53.078-35.477,75.238-71.48,101.576c-48.917,35.795-85.952,100.797-100.576,156.158
			c-18.829,71.258,17.951,152.156,69.503,189.672C363.966,1238.196,401.413,1233.834,436.922,1215.163z"/>
		<path clip-path="url(#SVGID_3_)" fill="#636363" d="M985.032,443.94c134.574-70.752,112.662-42.773,217.113-45.407
			c108.092-2.727,101.309-77.782,161.875-130.525c74.867-65.205,131.979,111.482,172.373,37.869
			c15.021-27.383,13.984-41.212,39.818-65.921c11.207-10.728,46.914-22.957,67.309-77.451c20.316-54.3,4.682-128.103-46.189-152.193
			c-34.084-16.144-61.105-15.357-74.115-49.977c-19.223-51.142-34.385-136.512-88.367-114.411
			c-60.129,24.613-78.99,126.452-147.131,90.73c-66.908-35.077-113.236-110.481-200.787-106.104
			c-71.848,3.589-88.635,76.766-105.691,164.717c-10.293,53.079-35.477,75.239-71.479,101.576
			c-48.918,35.795-85.953,100.799-100.576,156.158c-18.828,71.26,17.951,152.159,69.5,189.673
			C912.077,466.973,949.526,462.612,985.032,443.94z"/>
		<path clip-path="url(#SVGID_3_)" fill="#636363" d="M-99.987,1081.559c134.571-70.75,112.659-42.771,217.112-45.408
			c108.091-2.725,101.31-77.779,161.872-130.523c74.868-65.203,131.983,111.484,172.376,37.871
			c15.022-27.385,13.985-41.213,39.819-65.922c11.207-10.729,46.914-22.959,67.308-77.451
			c20.317-54.301,4.68-128.104-46.188-152.193c-34.087-16.145-61.106-15.357-74.115-49.977
			c-19.224-51.145-34.388-136.514-88.371-114.412c-60.127,24.615-78.988,126.453-147.128,90.73
			C135.788,539.198,89.459,463.793,1.91,468.17c-71.847,3.59-88.635,76.768-105.69,164.717
			c-10.294,53.078-35.478,75.238-71.48,101.578c-48.917,35.793-85.953,100.795-100.577,156.156
			c-18.829,71.258,17.952,152.156,69.503,189.672C-172.943,1104.592-135.497,1100.231-99.987,1081.559z"/>
		<g clip-path="url(#SVGID_3_)">
			<path fill="#FFFFFF" d="M6.648,711.676c-47.43-12.701-85.355-69.164-88.214-131.342c-2.859-62.174,29.626-123.99,75.563-143.783
				c13.466-5.805,27.891-8.287,41.838-10.688c18.138-3.122,36.893-6.35,53.391-16.959c25.676-16.514,42.624-48.299,59.013-79.037
				c2.026-3.797,4.043-7.577,6.069-11.319c17.157-31.678,41.152-68.839,74.684-75.059c16.468-3.057,33.918,1.685,50.793,6.263
				c25.064,6.807,48.739,13.235,68.231-4.694c19.325-17.773,22.474-48.406,25.812-80.839c1.834-17.845,3.73-36.297,8.552-52.566
				c15.996-53.997,63.492-79.049,103.471-79.927c39.737-0.844,78.279,16.608,115.542,33.518c2.717,1.23,5.428,2.458,8.133,3.682
				c39.734,17.92,82.061,34.755,124.252,26.924c38.861-7.217,75.152-36.527,97.078-78.402
				c21.928-41.875,29.393-96.13,19.971-145.135l1.061-0.336c9.494,49.381,1.971,104.057-20.125,146.255
				c-22.096,42.198-58.666,71.733-97.832,79.007c-42.432,7.878-84.904-9.012-124.768-26.99c-2.705-1.22-5.416-2.45-8.129-3.682
				C563.856,49.701,525.399,32.26,485.87,33.13c-39.611,0.87-86.656,25.638-102.469,79.021c-4.776,16.119-6.665,34.489-8.493,52.25
				c-3.365,32.744-6.547,63.675-26.257,81.798c-19.883,18.287-43.785,11.8-69.089,4.928c-16.784-4.557-34.137-9.27-50.415-6.249
				c-33.115,6.145-56.913,43.028-73.943,74.473c-2.026,3.736-4.042,7.516-6.061,11.309c-16.472,30.888-33.501,62.823-59.428,79.497
				c-16.662,10.717-35.508,13.959-53.733,17.096c-13.897,2.393-28.27,4.865-41.637,10.627
				c-45.484,19.598-77.65,80.807-74.821,142.373c2.833,61.564,40.384,117.473,87.347,130.047L6.648,711.676z"/>
		</g>
		<g clip-path="url(#SVGID_3_)">
			<path fill="#FFFFFF" d="M383.431,949.147c-20.799,0-41.163-4.6-59.856-13.84l0.391-1.309
				c83.176,41.107,188.997-14.008,226.461-117.943c10.512-29.168,16.194-61.152,21.692-92.086
				c4.564-25.715,9.287-52.295,16.766-77.248c16.141-53.863,54.771-108.232,101.445-100.361
				c34.676,5.863,58.367,42.959,81.279,78.84c22.598,35.395,45.969,71.99,79.834,78.455c33.842,6.449,64.621-19.236,94.385-44.086
				l4.75-3.961c42.344-35.205,75.785-44.359,102.229-27.982c18.957,11.744,31.01,35.156,42.672,57.799
				c2.859,5.563,5.82,11.313,8.822,16.758c7.219,13.096,33.164,55.02,64,44.717l0.273,1.357c-3.414,1.141-6.771,1.654-10.041,1.654
				c-26.959,0.006-48.596-35.076-55.123-46.916c-3.01-5.463-5.975-11.223-8.844-16.795c-11.576-22.48-23.547-45.732-42.234-57.311
				c-26.074-16.152-59.16-7.025-101.162,27.896l-4.75,3.957c-28.537,23.828-60.883,50.842-95.135,44.299
				c-34.285-6.541-57.793-43.354-80.521-78.955c-22.773-35.666-46.326-72.547-80.578-78.332
				c-46.078-7.775-84.289,46.105-100.283,99.475c-7.447,24.857-12.16,51.389-16.719,77.053
				c-5.508,31.008-11.207,63.066-21.764,92.361c-18.081,50.16-53.279,91.857-96.569,114.404
				C431.724,943.092,407.291,949.147,383.431,949.147z"/>
		</g>
		<g clip-path="url(#SVGID_3_)">
			
				<path fill="none" stroke="#F1F5FB" stroke-width="0.6855" stroke-linecap="round" stroke-linejoin="round" stroke-miterlimit="10" d="
				M1261.571,705.635C513.45,914.938,898.762-112.923-24.073,909.588"/>
			
				<path fill="none" stroke="#F1F5FB" stroke-width="0.6855" stroke-linecap="round" stroke-linejoin="round" stroke-miterlimit="10" d="
				M1263.066,689.188C490.602,920.194,880.12-116.534-22.813,871.93"/>
			
				<path fill="none" stroke="#F1F5FB" stroke-width="0.6855" stroke-linecap="round" stroke-linejoin="round" stroke-miterlimit="10" d="
				M1264.561,672.741C467.752,925.45,861.475-120.145-21.553,834.27"/>
			
				<path fill="none" stroke="#F1F5FB" stroke-width="0.6855" stroke-linecap="round" stroke-linejoin="round" stroke-miterlimit="10" d="
				M1266.056,656.293C444.902,930.706,842.832-123.756-20.293,796.612"/>
			
				<path fill="none" stroke="#F1F5FB" stroke-width="0.6855" stroke-linecap="round" stroke-linejoin="round" stroke-miterlimit="10" d="
				M1267.552,639.848C422.053,935.961,824.189-127.367-19.034,758.954"/>
			
				<path fill="none" stroke="#F1F5FB" stroke-width="0.6855" stroke-linecap="round" stroke-linejoin="round" stroke-miterlimit="10" d="
				M1269.048,623.401C399.204,941.217,805.545-130.979-17.773,721.295"/>
			
				<path fill="none" stroke="#F1F5FB" stroke-width="0.6855" stroke-linecap="round" stroke-linejoin="round" stroke-miterlimit="10" d="
				M1270.543,606.954C376.354,946.473,786.902-134.59-16.514,683.635"/>
			
				<path fill="none" stroke="#F1F5FB" stroke-width="0.6855" stroke-linecap="round" stroke-linejoin="round" stroke-miterlimit="10" d="
				M1272.039,590.506C353.504,951.729,768.258-138.201-15.254,645.977"/>
			
				<path fill="none" stroke="#F1F5FB" stroke-width="0.6855" stroke-linecap="round" stroke-linejoin="round" stroke-miterlimit="10" d="
				M1273.534,574.061C330.655,956.985,749.615-141.813-13.994,608.319"/>
			
				<path fill="none" stroke="#F1F5FB" stroke-width="0.6855" stroke-linecap="round" stroke-linejoin="round" stroke-miterlimit="10" d="
				M1275.03,557.614C307.806,962.241,730.971-145.423-12.734,570.661"/>
			
				<path fill="none" stroke="#F1F5FB" stroke-width="0.6855" stroke-linecap="round" stroke-linejoin="round" stroke-miterlimit="10" d="
				M1276.525,541.167c-991.569,426.33-564.197-690.201-1288-8.166"/>
			
				<path fill="none" stroke="#F1F5FB" stroke-width="0.6855" stroke-linecap="round" stroke-linejoin="round" stroke-miterlimit="10" d="
				M1278.02,524.719C262.106,972.752,693.684-152.646-10.215,495.342"/>
			
				<path fill="none" stroke="#F1F5FB" stroke-width="0.6855" stroke-linecap="round" stroke-linejoin="round" stroke-miterlimit="10" d="
				M1279.516,508.274C239.257,978.008,675.041-156.257-8.955,457.684"/>
			
				<path fill="none" stroke="#F1F5FB" stroke-width="0.6855" stroke-linecap="round" stroke-linejoin="round" stroke-miterlimit="10" d="
				M1281.011,491.827C216.409,983.264,656.397-159.868-7.695,420.024"/>
			
				<path fill="none" stroke="#F1F5FB" stroke-width="0.6855" stroke-linecap="round" stroke-linejoin="round" stroke-miterlimit="10" d="
				M1282.506,475.379C193.559,988.52,637.754-163.479-6.435,382.365"/>
			
				<path fill="none" stroke="#F1F5FB" stroke-width="0.6855" stroke-linecap="round" stroke-linejoin="round" stroke-miterlimit="10" d="
				M1284.002,458.932C170.708,993.776,619.11-167.091-5.175,344.707"/>
			
				<path fill="none" stroke="#F1F5FB" stroke-width="0.6855" stroke-linecap="round" stroke-linejoin="round" stroke-miterlimit="10" d="
				M1285.497,442.487C147.86,999.032,600.467-170.702-3.916,307.048"/>
			
				<path fill="none" stroke="#F1F5FB" stroke-width="0.6855" stroke-linecap="round" stroke-linejoin="round" stroke-miterlimit="10" d="
				M1286.993,426.04C125.01,1004.288,581.823-174.313-2.656,269.39"/>
			
				<path fill="none" stroke="#F1F5FB" stroke-width="0.6855" stroke-linecap="round" stroke-linejoin="round" stroke-miterlimit="10" d="
				M1288.488,409.592C102.161,1009.543,563.18-177.924-1.396,231.73"/>
			
				<path fill="none" stroke="#F1F5FB" stroke-width="0.6855" stroke-linecap="round" stroke-linejoin="round" stroke-miterlimit="10" d="
				M1289.983,393.146C79.312,1014.799,544.537-181.535-0.136,194.072"/>
			
				<path fill="none" stroke="#F1F5FB" stroke-width="0.6855" stroke-linecap="round" stroke-linejoin="round" stroke-miterlimit="10" d="
				M1291.479,376.698C56.461,1020.055,525.893-185.146,1.125,156.413"/>
			
				<path fill="none" stroke="#F1F5FB" stroke-width="0.6855" stroke-linecap="round" stroke-linejoin="round" stroke-miterlimit="10" d="
				M1292.974,360.252C33.613,1025.311,507.249-188.757,2.384,118.754"/>
			
				<path fill="none" stroke="#F1F5FB" stroke-width="0.6855" stroke-linecap="round" stroke-linejoin="round" stroke-miterlimit="10" d="
				M1294.469,343.805C10.763,1030.567,488.606-192.369,3.644,81.096"/>
			
				<path fill="none" stroke="#F1F5FB" stroke-width="0.6855" stroke-linecap="round" stroke-linejoin="round" stroke-miterlimit="10" d="
				M1295.965,327.358C-12.086,1035.825,469.962-195.98,4.904,43.437"/>
			
				<path fill="none" stroke="#F1F5FB" stroke-width="0.6855" stroke-linecap="round" stroke-linejoin="round" stroke-miterlimit="10" d="
				M1297.46,310.911C-34.936,1041.081,451.319-199.591,6.164,5.778"/>
			
				<path fill="none" stroke="#F1F5FB" stroke-width="0.6855" stroke-linecap="round" stroke-linejoin="round" stroke-miterlimit="10" d="
				M1298.956,294.464C-57.785,1046.336,432.675-203.202,7.423-31.881"/>
			
				<path fill="none" stroke="#F1F5FB" stroke-width="0.6855" stroke-linecap="round" stroke-linejoin="round" stroke-miterlimit="10" d="
				M1300.452,278.017C-80.635,1051.592,414.032-206.813,8.683-69.54"/>
			
				<path fill="none" stroke="#F1F5FB" stroke-width="0.6855" stroke-linecap="round" stroke-linejoin="round" stroke-miterlimit="10" d="
				M1301.947,261.57C-103.484,1056.848,395.388-210.424,9.943-107.198"/>
			
				<path fill="none" stroke="#F1F5FB" stroke-width="0.6855" stroke-linecap="round" stroke-linejoin="round" stroke-miterlimit="10" d="
				M1303.442,245.124C-126.333,1062.104,376.745-214.036,11.204-144.857"/>
			
				<path fill="none" stroke="#F1F5FB" stroke-width="0.6855" stroke-linecap="round" stroke-linejoin="round" stroke-miterlimit="10" d="
				M1304.938,228.677C-149.183,1067.36,358.101-217.647,12.463-182.516"/>
			
				<path fill="none" stroke="#F1F5FB" stroke-width="0.6855" stroke-linecap="round" stroke-linejoin="round" stroke-miterlimit="10" d="
				M1306.433,212.23C-172.033,1072.616,339.458-221.258,13.723-220.175"/>
			
				<path fill="none" stroke="#F1F5FB" stroke-width="0.6855" stroke-linecap="round" stroke-linejoin="round" stroke-miterlimit="10" d="
				M1307.928,195.783C-194.882,1077.872,320.814-224.869,14.983-257.833"/>
		</g>
	</g>
	<g>
		<path fill="#FFFFFF" d="M232.143,39.813c1.064,0,1.926-1.105,1.926-2.477c0-1.364-0.862-2.473-1.926-2.473
			s-1.925,1.109-1.925,2.473C230.218,38.708,231.079,39.813,232.143,39.813z"/>
		<path fill="#FFFFFF" d="M245.242,39.813c1.065,0,1.926-1.105,1.926-2.477c0-1.364-0.86-2.473-1.926-2.473
			c-1.064,0-1.925,1.109-1.925,2.473C243.317,38.708,244.178,39.813,245.242,39.813z"/>
		<path fill="#FFFFFF" d="M258.342,39.813c1.065,0,1.926-1.105,1.926-2.477c0-1.364-0.86-2.473-1.926-2.473
			c-1.064,0-1.925,1.109-1.925,2.473C256.417,38.708,257.277,39.813,258.342,39.813z"/>
		<path fill="#FFFFFF" d="M271.441,39.813c1.065,0,1.926-1.105,1.926-2.477c0-1.364-0.86-2.473-1.926-2.473
			c-1.063,0-1.925,1.109-1.925,2.473C269.517,38.708,270.378,39.813,271.441,39.813z"/>
		<path fill="#FFFFFF" d="M284.542,39.813c1.063,0,1.926-1.105,1.926-2.477c0-1.364-0.863-2.473-1.926-2.473
			c-1.064,0-1.924,1.109-1.924,2.473C282.618,38.708,283.478,39.813,284.542,39.813z"/>
		<path fill="#FFFFFF" d="M297.642,39.813c1.064,0,1.926-1.105,1.926-2.477c0-1.364-0.861-2.473-1.926-2.473
			c-1.064,0-1.924,1.109-1.924,2.473C295.717,38.708,296.578,39.813,297.642,39.813z"/>
		<path fill="#FFFFFF" d="M310.741,39.813c1.064,0,1.926-1.105,1.926-2.477c0-1.364-0.862-2.473-1.926-2.473
			c-1.063,0-1.925,1.109-1.925,2.473C308.816,38.708,309.679,39.813,310.741,39.813z"/>
		<path fill="#FFFFFF" d="M323.842,39.813c1.063,0,1.924-1.105,1.924-2.477c0-1.364-0.862-2.473-1.924-2.473
			c-1.064,0-1.926,1.109-1.926,2.473C321.916,38.708,322.778,39.813,323.842,39.813z"/>
		<path fill="#FFFFFF" d="M336.942,39.813c1.064,0,1.924-1.105,1.924-2.477c0-1.364-0.86-2.473-1.924-2.473
			s-1.926,1.109-1.926,2.473C335.016,38.708,335.878,39.813,336.942,39.813z"/>
		<path fill="#FFFFFF" d="M350.041,39.813c1.064,0,1.925-1.105,1.925-2.477c0-1.364-0.86-2.473-1.925-2.473
			c-1.064,0-1.926,1.109-1.926,2.473C348.115,38.708,348.977,39.813,350.041,39.813z"/>
		<path fill="#FFFFFF" d="M363.142,39.813c1.063,0,1.923-1.105,1.923-2.477c0-1.364-0.86-2.473-1.923-2.473
			c-1.065,0-1.927,1.109-1.927,2.473C361.215,38.708,362.077,39.813,363.142,39.813z"/>
		<path fill="#FFFFFF" d="M376.242,39.813c1.063,0,1.924-1.105,1.924-2.477c0-1.364-0.861-2.473-1.924-2.473
			c-1.065,0-1.926,1.109-1.926,2.473C374.316,38.708,375.176,39.813,376.242,39.813z"/>
		<path fill="#FFFFFF" d="M389.341,39.813c1.064,0,1.924-1.105,1.924-2.477c0-1.364-0.86-2.473-1.924-2.473
			c-1.065,0-1.926,1.109-1.926,2.473C387.415,38.708,388.276,39.813,389.341,39.813z"/>
		<path fill="#FFFFFF" d="M402.439,39.813c1.065,0,1.926-1.105,1.926-2.477c0-1.364-0.86-2.473-1.926-2.473
			c-1.063,0-1.925,1.109-1.925,2.473C400.515,38.708,401.377,39.813,402.439,39.813z"/>
		<path fill="#FFFFFF" d="M415.54,39.813c1.063,0,1.926-1.105,1.926-2.477c0-1.364-0.863-2.473-1.926-2.473
			c-1.064,0-1.924,1.109-1.924,2.473C413.616,38.708,414.476,39.813,415.54,39.813z"/>
		<path fill="#FFFFFF" d="M428.64,39.813c1.064,0,1.926-1.105,1.926-2.477c0-1.364-0.862-2.473-1.926-2.473
			c-1.064,0-1.924,1.109-1.924,2.473C426.715,38.708,427.576,39.813,428.64,39.813z"/>
		<path fill="#FFFFFF" d="M441.739,39.813c1.064,0,1.926-1.105,1.926-2.477c0-1.364-0.862-2.473-1.926-2.473
			c-1.063,0-1.924,1.109-1.924,2.473C439.815,38.708,440.677,39.813,441.739,39.813z"/>
		<path fill="#FFFFFF" d="M454.84,39.813c1.063,0,1.924-1.105,1.924-2.477c0-1.364-0.861-2.473-1.924-2.473
			c-1.064,0-1.926,1.109-1.926,2.473C452.915,38.708,453.776,39.813,454.84,39.813z"/>
		<path fill="#FFFFFF" d="M467.94,39.813c1.064,0,1.924-1.105,1.924-2.477c0-1.364-0.86-2.473-1.924-2.473s-1.926,1.109-1.926,2.473
			C466.014,38.708,466.876,39.813,467.94,39.813z"/>
		<path fill="#FFFFFF" d="M481.04,39.813c1.064,0,1.924-1.105,1.924-2.477c0-1.364-0.86-2.473-1.924-2.473
			c-1.063,0-1.926,1.109-1.926,2.473C479.113,38.708,479.977,39.813,481.04,39.813z"/>
		<path fill="#FFFFFF" d="M494.139,39.813c1.064,0,1.926-1.105,1.926-2.477c0-1.364-0.862-2.473-1.926-2.473
			c-1.064,0-1.924,1.109-1.924,2.473C492.214,38.708,493.075,39.813,494.139,39.813z"/>
		<path fill="#FFFFFF" d="M507.24,39.813c1.064,0,1.925-1.105,1.925-2.477c0-1.364-0.861-2.473-1.925-2.473
			c-1.065,0-1.926,1.109-1.926,2.473C505.314,38.708,506.174,39.813,507.24,39.813z"/>
		<path fill="#FFFFFF" d="M520.339,39.813c1.064,0,1.925-1.105,1.925-2.477c0-1.364-0.861-2.473-1.925-2.473
			c-1.065,0-1.926,1.109-1.926,2.473C518.414,38.708,519.274,39.813,520.339,39.813z"/>
		<path fill="#FFFFFF" d="M533.438,39.813c1.065,0,1.926-1.105,1.926-2.477c0-1.364-0.86-2.473-1.926-2.473
			c-1.063,0-1.924,1.109-1.924,2.473C531.513,38.708,532.375,39.813,533.438,39.813z"/>
		<path fill="#FFFFFF" d="M546.538,39.813c1.064,0,1.927-1.105,1.927-2.477c0-1.364-0.862-2.473-1.927-2.473
			c-1.063,0-1.924,1.109-1.924,2.473C544.614,38.708,545.475,39.813,546.538,39.813z"/>
		<path fill="#FFFFFF" d="M559.638,39.813c1.065,0,1.925-1.105,1.925-2.477c0-1.364-0.86-2.473-1.925-2.473
			s-1.924,1.109-1.924,2.473C557.714,38.708,558.572,39.813,559.638,39.813z"/>
		<path fill="#FFFFFF" d="M572.737,39.813c1.064,0,1.928-1.105,1.928-2.477c0-1.364-0.863-2.473-1.928-2.473
			c-1.061,0-1.926,1.109-1.926,2.473C570.811,38.708,571.676,39.813,572.737,39.813z"/>
		<path fill="#FFFFFF" d="M585.84,39.813c1.059,0,1.924-1.105,1.924-2.477c0-1.364-0.865-2.473-1.924-2.473
			c-1.066,0-1.928,1.109-1.928,2.473C583.913,38.708,584.774,39.813,585.84,39.813z"/>
		<path fill="#FFFFFF" d="M598.938,39.813c1.066,0,1.924-1.105,1.924-2.477c0-1.364-0.857-2.473-1.924-2.473
			c-1.064,0-1.924,1.109-1.924,2.473C597.014,38.708,597.874,39.813,598.938,39.813z"/>
		<path fill="#FFFFFF" d="M612.036,39.813c1.066,0,1.926-1.105,1.926-2.477c0-1.364-0.859-2.473-1.926-2.473
			c-1.063,0-1.924,1.109-1.924,2.473C610.112,38.708,610.973,39.813,612.036,39.813z"/>
		<path fill="#FFFFFF" d="M625.139,39.813c1.061,0,1.922-1.105,1.922-2.477c0-1.364-0.861-2.473-1.922-2.473
			c-1.064,0-1.93,1.109-1.93,2.473C623.209,38.708,624.075,39.813,625.139,39.813z"/>
		<path fill="#FFFFFF" d="M638.239,39.813c1.063,0,1.924-1.105,1.924-2.477c0-1.364-0.861-2.473-1.924-2.473
			c-1.066,0-1.926,1.109-1.926,2.473C636.313,38.708,637.172,39.813,638.239,39.813z"/>
		<path fill="#FFFFFF" d="M232.143,56.656c1.064,0,1.926-1.107,1.926-2.478c0-1.365-0.862-2.473-1.926-2.473
			s-1.925,1.107-1.925,2.473C230.218,55.548,231.079,56.656,232.143,56.656z"/>
		<path fill="#FFFFFF" d="M245.242,56.656c1.065,0,1.926-1.107,1.926-2.478c0-1.365-0.86-2.473-1.926-2.473
			c-1.064,0-1.925,1.107-1.925,2.473C243.317,55.548,244.178,56.656,245.242,56.656z"/>
		<path fill="#FFFFFF" d="M258.342,56.656c1.065,0,1.926-1.107,1.926-2.478c0-1.365-0.86-2.473-1.926-2.473
			c-1.064,0-1.925,1.107-1.925,2.473C256.417,55.548,257.277,56.656,258.342,56.656z"/>
		<path fill="#FFFFFF" d="M271.441,56.656c1.065,0,1.926-1.107,1.926-2.478c0-1.365-0.86-2.473-1.926-2.473
			c-1.063,0-1.925,1.107-1.925,2.473C269.517,55.548,270.378,56.656,271.441,56.656z"/>
		<path fill="#FFFFFF" d="M284.542,56.656c1.063,0,1.926-1.107,1.926-2.478c0-1.365-0.863-2.473-1.926-2.473
			c-1.064,0-1.924,1.107-1.924,2.473C282.618,55.548,283.478,56.656,284.542,56.656z"/>
		<path fill="#FFFFFF" d="M297.642,56.656c1.064,0,1.926-1.107,1.926-2.478c0-1.365-0.861-2.473-1.926-2.473
			c-1.064,0-1.924,1.107-1.924,2.473C295.717,55.548,296.578,56.656,297.642,56.656z"/>
		<path fill="#FFFFFF" d="M310.741,56.656c1.064,0,1.926-1.107,1.926-2.478c0-1.365-0.862-2.473-1.926-2.473
			c-1.063,0-1.925,1.107-1.925,2.473C308.816,55.548,309.679,56.656,310.741,56.656z"/>
		<path fill="#FFFFFF" d="M323.842,56.656c1.063,0,1.924-1.107,1.924-2.478c0-1.365-0.862-2.473-1.924-2.473
			c-1.064,0-1.926,1.107-1.926,2.473C321.916,55.548,322.778,56.656,323.842,56.656z"/>
		<path fill="#FFFFFF" d="M336.942,56.656c1.064,0,1.924-1.107,1.924-2.478c0-1.365-0.86-2.473-1.924-2.473
			s-1.926,1.107-1.926,2.473C335.016,55.548,335.878,56.656,336.942,56.656z"/>
		<path fill="#FFFFFF" d="M350.041,56.656c1.064,0,1.925-1.107,1.925-2.478c0-1.365-0.86-2.473-1.925-2.473
			c-1.064,0-1.926,1.107-1.926,2.473C348.115,55.548,348.977,56.656,350.041,56.656z"/>
		<path fill="#FFFFFF" d="M363.142,56.656c1.063,0,1.923-1.107,1.923-2.478c0-1.365-0.86-2.473-1.923-2.473
			c-1.065,0-1.927,1.107-1.927,2.473C361.215,55.548,362.077,56.656,363.142,56.656z"/>
		<path fill="#FFFFFF" d="M376.242,56.656c1.063,0,1.924-1.107,1.924-2.478c0-1.365-0.861-2.473-1.924-2.473
			c-1.065,0-1.926,1.107-1.926,2.473C374.316,55.548,375.176,56.656,376.242,56.656z"/>
		<path fill="#FFFFFF" d="M389.341,56.656c1.064,0,1.924-1.107,1.924-2.478c0-1.365-0.86-2.473-1.924-2.473
			c-1.065,0-1.926,1.107-1.926,2.473C387.415,55.548,388.276,56.656,389.341,56.656z"/>
		<path fill="#FFFFFF" d="M402.439,56.656c1.065,0,1.926-1.107,1.926-2.478c0-1.365-0.86-2.473-1.926-2.473
			c-1.063,0-1.925,1.107-1.925,2.473C400.515,55.548,401.377,56.656,402.439,56.656z"/>
		<path fill="#FFFFFF" d="M415.54,56.656c1.063,0,1.926-1.107,1.926-2.478c0-1.365-0.863-2.473-1.926-2.473
			c-1.064,0-1.924,1.107-1.924,2.473C413.616,55.548,414.476,56.656,415.54,56.656z"/>
		<path fill="#FFFFFF" d="M428.64,56.656c1.064,0,1.926-1.107,1.926-2.478c0-1.365-0.862-2.473-1.926-2.473
			c-1.064,0-1.924,1.107-1.924,2.473C426.715,55.548,427.576,56.656,428.64,56.656z"/>
		<path fill="#FFFFFF" d="M441.739,56.656c1.064,0,1.926-1.107,1.926-2.478c0-1.365-0.862-2.473-1.926-2.473
			c-1.063,0-1.924,1.107-1.924,2.473C439.815,55.548,440.677,56.656,441.739,56.656z"/>
		<path fill="#FFFFFF" d="M454.84,56.656c1.063,0,1.924-1.107,1.924-2.478c0-1.365-0.861-2.473-1.924-2.473
			c-1.064,0-1.926,1.107-1.926,2.473C452.915,55.548,453.776,56.656,454.84,56.656z"/>
		<path fill="#FFFFFF" d="M467.94,56.656c1.064,0,1.924-1.107,1.924-2.478c0-1.365-0.86-2.473-1.924-2.473s-1.926,1.107-1.926,2.473
			C466.014,55.548,466.876,56.656,467.94,56.656z"/>
		<path fill="#FFFFFF" d="M481.04,56.656c1.064,0,1.924-1.107,1.924-2.478c0-1.365-0.86-2.473-1.924-2.473
			c-1.063,0-1.926,1.107-1.926,2.473C479.113,55.548,479.977,56.656,481.04,56.656z"/>
		<path fill="#FFFFFF" d="M494.139,56.656c1.064,0,1.926-1.107,1.926-2.478c0-1.365-0.862-2.473-1.926-2.473
			c-1.064,0-1.924,1.107-1.924,2.473C492.214,55.548,493.075,56.656,494.139,56.656z"/>
		<path fill="#FFFFFF" d="M507.24,56.656c1.064,0,1.925-1.107,1.925-2.478c0-1.365-0.861-2.473-1.925-2.473
			c-1.065,0-1.926,1.107-1.926,2.473C505.314,55.548,506.174,56.656,507.24,56.656z"/>
		<path fill="#FFFFFF" d="M520.339,56.656c1.064,0,1.925-1.107,1.925-2.478c0-1.365-0.861-2.473-1.925-2.473
			c-1.065,0-1.926,1.107-1.926,2.473C518.414,55.548,519.274,56.656,520.339,56.656z"/>
		<path fill="#FFFFFF" d="M533.438,56.656c1.065,0,1.926-1.107,1.926-2.478c0-1.365-0.86-2.473-1.926-2.473
			c-1.063,0-1.924,1.107-1.924,2.473C531.513,55.548,532.375,56.656,533.438,56.656z"/>
		<path fill="#FFFFFF" d="M546.538,56.656c1.064,0,1.927-1.107,1.927-2.478c0-1.365-0.862-2.473-1.927-2.473
			c-1.063,0-1.924,1.107-1.924,2.473C544.614,55.548,545.475,56.656,546.538,56.656z"/>
		<path fill="#FFFFFF" d="M559.638,56.656c1.065,0,1.925-1.107,1.925-2.478c0-1.365-0.86-2.473-1.925-2.473
			s-1.924,1.107-1.924,2.473C557.714,55.548,558.572,56.656,559.638,56.656z"/>
		<path fill="#FFFFFF" d="M572.737,56.656c1.064,0,1.928-1.107,1.928-2.478c0-1.365-0.863-2.473-1.928-2.473
			c-1.061,0-1.926,1.107-1.926,2.473C570.811,55.548,571.676,56.656,572.737,56.656z"/>
		<path fill="#FFFFFF" d="M585.84,56.656c1.059,0,1.924-1.107,1.924-2.478c0-1.365-0.865-2.473-1.924-2.473
			c-1.066,0-1.928,1.107-1.928,2.473C583.913,55.548,584.774,56.656,585.84,56.656z"/>
		<path fill="#FFFFFF" d="M598.938,56.656c1.066,0,1.924-1.107,1.924-2.478c0-1.365-0.857-2.473-1.924-2.473
			c-1.064,0-1.924,1.107-1.924,2.473C597.014,55.548,597.874,56.656,598.938,56.656z"/>
		<path fill="#FFFFFF" d="M612.036,56.656c1.066,0,1.926-1.107,1.926-2.478c0-1.365-0.859-2.473-1.926-2.473
			c-1.063,0-1.924,1.107-1.924,2.473C610.112,55.548,610.973,56.656,612.036,56.656z"/>
		<path fill="#FFFFFF" d="M625.139,56.656c1.061,0,1.922-1.107,1.922-2.478c0-1.365-0.861-2.473-1.922-2.473
			c-1.064,0-1.93,1.107-1.93,2.473C623.209,55.548,624.075,56.656,625.139,56.656z"/>
		<path fill="#FFFFFF" d="M638.239,56.656c1.063,0,1.924-1.107,1.924-2.478c0-1.365-0.861-2.473-1.924-2.473
			c-1.066,0-1.926,1.107-1.926,2.473C636.313,55.548,637.172,56.656,638.239,56.656z"/>
		<path fill="#FFFFFF" d="M232.143,73.497c1.064,0,1.926-1.109,1.926-2.478c0-1.365-0.862-2.471-1.926-2.471
			s-1.925,1.106-1.925,2.471C230.218,72.388,231.079,73.497,232.143,73.497z"/>
		<path fill="#FFFFFF" d="M245.242,73.497c1.065,0,1.926-1.109,1.926-2.478c0-1.365-0.86-2.471-1.926-2.471
			c-1.064,0-1.925,1.106-1.925,2.471C243.317,72.388,244.178,73.497,245.242,73.497z"/>
		<path fill="#FFFFFF" d="M258.342,73.497c1.065,0,1.926-1.109,1.926-2.478c0-1.365-0.86-2.471-1.926-2.471
			c-1.064,0-1.925,1.106-1.925,2.471C256.417,72.388,257.277,73.497,258.342,73.497z"/>
		<path fill="#FFFFFF" d="M271.441,73.497c1.065,0,1.926-1.109,1.926-2.478c0-1.365-0.86-2.471-1.926-2.471
			c-1.063,0-1.925,1.106-1.925,2.471C269.517,72.388,270.378,73.497,271.441,73.497z"/>
		<path fill="#FFFFFF" d="M284.542,73.497c1.063,0,1.926-1.109,1.926-2.478c0-1.365-0.863-2.471-1.926-2.471
			c-1.064,0-1.924,1.106-1.924,2.471C282.618,72.388,283.478,73.497,284.542,73.497z"/>
		<path fill="#FFFFFF" d="M297.642,73.497c1.064,0,1.926-1.109,1.926-2.478c0-1.365-0.861-2.471-1.926-2.471
			c-1.064,0-1.924,1.106-1.924,2.471C295.717,72.388,296.578,73.497,297.642,73.497z"/>
		<path fill="#FFFFFF" d="M310.741,73.497c1.064,0,1.926-1.109,1.926-2.478c0-1.365-0.862-2.471-1.926-2.471
			c-1.063,0-1.925,1.106-1.925,2.471C308.816,72.388,309.679,73.497,310.741,73.497z"/>
		<path fill="#FFFFFF" d="M323.842,73.497c1.063,0,1.924-1.109,1.924-2.478c0-1.365-0.862-2.471-1.924-2.471
			c-1.064,0-1.926,1.106-1.926,2.471C321.916,72.388,322.778,73.497,323.842,73.497z"/>
		<path fill="#FFFFFF" d="M336.942,73.497c1.064,0,1.924-1.109,1.924-2.478c0-1.365-0.86-2.471-1.924-2.471
			s-1.926,1.106-1.926,2.471C335.016,72.388,335.878,73.497,336.942,73.497z"/>
		<path fill="#FFFFFF" d="M350.041,73.497c1.064,0,1.925-1.109,1.925-2.478c0-1.365-0.86-2.471-1.925-2.471
			c-1.064,0-1.926,1.106-1.926,2.471C348.115,72.388,348.977,73.497,350.041,73.497z"/>
		<path fill="#FFFFFF" d="M363.142,73.497c1.063,0,1.923-1.109,1.923-2.478c0-1.365-0.86-2.471-1.923-2.471
			c-1.065,0-1.927,1.106-1.927,2.471C361.215,72.388,362.077,73.497,363.142,73.497z"/>
		<path fill="#FFFFFF" d="M376.242,73.497c1.063,0,1.924-1.109,1.924-2.478c0-1.365-0.861-2.471-1.924-2.471
			c-1.065,0-1.926,1.106-1.926,2.471C374.316,72.388,375.176,73.497,376.242,73.497z"/>
		<path fill="#FFFFFF" d="M389.341,73.497c1.064,0,1.924-1.109,1.924-2.478c0-1.365-0.86-2.471-1.924-2.471
			c-1.065,0-1.926,1.106-1.926,2.471C387.415,72.388,388.276,73.497,389.341,73.497z"/>
		<path fill="#FFFFFF" d="M402.439,73.497c1.065,0,1.926-1.109,1.926-2.478c0-1.365-0.86-2.471-1.926-2.471
			c-1.063,0-1.925,1.106-1.925,2.471C400.515,72.388,401.377,73.497,402.439,73.497z"/>
		<path fill="#FFFFFF" d="M415.54,73.497c1.063,0,1.926-1.109,1.926-2.478c0-1.365-0.863-2.471-1.926-2.471
			c-1.064,0-1.924,1.106-1.924,2.471C413.616,72.388,414.476,73.497,415.54,73.497z"/>
		<path fill="#FFFFFF" d="M428.64,73.497c1.064,0,1.926-1.109,1.926-2.478c0-1.365-0.862-2.471-1.926-2.471
			c-1.064,0-1.924,1.106-1.924,2.471C426.715,72.388,427.576,73.497,428.64,73.497z"/>
		<path fill="#FFFFFF" d="M441.739,73.497c1.064,0,1.926-1.109,1.926-2.478c0-1.365-0.862-2.471-1.926-2.471
			c-1.063,0-1.924,1.106-1.924,2.471C439.815,72.388,440.677,73.497,441.739,73.497z"/>
		<path fill="#FFFFFF" d="M454.84,73.497c1.063,0,1.924-1.109,1.924-2.478c0-1.365-0.861-2.471-1.924-2.471
			c-1.064,0-1.926,1.106-1.926,2.471C452.915,72.388,453.776,73.497,454.84,73.497z"/>
		<path fill="#FFFFFF" d="M467.94,73.497c1.064,0,1.924-1.109,1.924-2.478c0-1.365-0.86-2.471-1.924-2.471s-1.926,1.106-1.926,2.471
			C466.014,72.388,466.876,73.497,467.94,73.497z"/>
		<path fill="#FFFFFF" d="M481.04,73.497c1.064,0,1.924-1.109,1.924-2.478c0-1.365-0.86-2.471-1.924-2.471
			c-1.063,0-1.926,1.106-1.926,2.471C479.113,72.388,479.977,73.497,481.04,73.497z"/>
		<path fill="#FFFFFF" d="M494.139,73.497c1.064,0,1.926-1.109,1.926-2.478c0-1.365-0.862-2.471-1.926-2.471
			c-1.064,0-1.924,1.106-1.924,2.471C492.214,72.388,493.075,73.497,494.139,73.497z"/>
		<path fill="#FFFFFF" d="M507.24,73.497c1.064,0,1.925-1.109,1.925-2.478c0-1.365-0.861-2.471-1.925-2.471
			c-1.065,0-1.926,1.106-1.926,2.471C505.314,72.388,506.174,73.497,507.24,73.497z"/>
		<path fill="#FFFFFF" d="M520.339,73.497c1.064,0,1.925-1.109,1.925-2.478c0-1.365-0.861-2.471-1.925-2.471
			c-1.065,0-1.926,1.106-1.926,2.471C518.414,72.388,519.274,73.497,520.339,73.497z"/>
		<path fill="#FFFFFF" d="M533.438,73.497c1.065,0,1.926-1.109,1.926-2.478c0-1.365-0.86-2.471-1.926-2.471
			c-1.063,0-1.924,1.106-1.924,2.471C531.513,72.388,532.375,73.497,533.438,73.497z"/>
		<path fill="#FFFFFF" d="M546.538,73.497c1.064,0,1.927-1.109,1.927-2.478c0-1.365-0.862-2.471-1.927-2.471
			c-1.063,0-1.924,1.106-1.924,2.471C544.614,72.388,545.475,73.497,546.538,73.497z"/>
		<path fill="#FFFFFF" d="M559.638,73.497c1.065,0,1.925-1.109,1.925-2.478c0-1.365-0.86-2.471-1.925-2.471
			s-1.924,1.106-1.924,2.471C557.714,72.388,558.572,73.497,559.638,73.497z"/>
		<path fill="#FFFFFF" d="M572.737,73.497c1.064,0,1.928-1.109,1.928-2.478c0-1.365-0.863-2.471-1.928-2.471
			c-1.061,0-1.926,1.106-1.926,2.471C570.811,72.388,571.676,73.497,572.737,73.497z"/>
		<path fill="#FFFFFF" d="M585.84,73.497c1.059,0,1.924-1.109,1.924-2.478c0-1.365-0.865-2.471-1.924-2.471
			c-1.066,0-1.928,1.106-1.928,2.471C583.913,72.388,584.774,73.497,585.84,73.497z"/>
		<path fill="#FFFFFF" d="M598.938,73.497c1.066,0,1.924-1.109,1.924-2.478c0-1.365-0.857-2.471-1.924-2.471
			c-1.064,0-1.924,1.106-1.924,2.471C597.014,72.388,597.874,73.497,598.938,73.497z"/>
		<path fill="#FFFFFF" d="M612.036,73.497c1.066,0,1.926-1.109,1.926-2.478c0-1.365-0.859-2.471-1.926-2.471
			c-1.063,0-1.924,1.106-1.924,2.471C610.112,72.388,610.973,73.497,612.036,73.497z"/>
		<path fill="#FFFFFF" d="M625.139,73.497c1.061,0,1.922-1.109,1.922-2.478c0-1.365-0.861-2.471-1.922-2.471
			c-1.064,0-1.93,1.106-1.93,2.471C623.209,72.388,624.075,73.497,625.139,73.497z"/>
		<path fill="#FFFFFF" d="M638.239,73.497c1.063,0,1.924-1.109,1.924-2.478c0-1.365-0.861-2.471-1.924-2.471
			c-1.066,0-1.926,1.106-1.926,2.471C636.313,72.388,637.172,73.497,638.239,73.497z"/>
	</g>
	<g>
		<path fill="#FFFFFF" d="M402.527,708.446c1.063,0,1.927-1.109,1.927-2.473c0-1.369-0.865-2.475-1.927-2.475
			s-1.923,1.105-1.923,2.475C400.604,707.336,401.465,708.446,402.527,708.446z"/>
		<path fill="#FFFFFF" d="M415.627,708.446c1.064,0,1.927-1.109,1.927-2.473c0-1.369-0.863-2.475-1.927-2.475
			c-1.063,0-1.923,1.105-1.923,2.475C413.704,707.336,414.564,708.446,415.627,708.446z"/>
		<path fill="#FFFFFF" d="M428.725,708.446c1.065,0,1.929-1.109,1.929-2.473c0-1.369-0.863-2.475-1.929-2.475
			c-1.062,0-1.922,1.105-1.922,2.475C426.803,707.336,427.664,708.446,428.725,708.446z"/>
		<path fill="#FFFFFF" d="M441.826,708.446c1.064,0,1.927-1.109,1.927-2.473c0-1.369-0.863-2.475-1.927-2.475
			c-1.062,0-1.923,1.105-1.923,2.475C439.903,707.336,440.765,708.446,441.826,708.446z"/>
		<path fill="#FFFFFF" d="M454.925,708.446c1.064,0,1.927-1.109,1.927-2.473c0-1.369-0.863-2.475-1.927-2.475
			c-1.061,0-1.923,1.105-1.923,2.475C453.002,707.336,453.864,708.446,454.925,708.446z"/>
		<path fill="#FFFFFF" d="M468.025,708.446c1.064,0,1.927-1.109,1.927-2.473c0-1.369-0.863-2.475-1.927-2.475
			c-1.061,0-1.923,1.105-1.923,2.475C466.102,707.336,466.964,708.446,468.025,708.446z"/>
		<path fill="#FFFFFF" d="M481.125,708.446c1.064,0,1.927-1.109,1.927-2.473c0-1.369-0.863-2.475-1.927-2.475
			c-1.061,0-1.923,1.105-1.923,2.475C479.201,707.336,480.063,708.446,481.125,708.446z"/>
		<path fill="#FFFFFF" d="M494.226,708.446c1.063,0,1.927-1.109,1.927-2.473c0-1.369-0.865-2.475-1.927-2.475
			c-1.063,0-1.923,1.105-1.923,2.475C492.302,707.336,493.163,708.446,494.226,708.446z"/>
		<path fill="#FFFFFF" d="M507.325,708.446c1.064,0,1.927-1.109,1.927-2.473c0-1.369-0.863-2.475-1.927-2.475
			c-1.063,0-1.923,1.105-1.923,2.475C505.402,707.336,506.262,708.446,507.325,708.446z"/>
		<path fill="#FFFFFF" d="M520.425,708.446c1.064,0,1.927-1.109,1.927-2.473c0-1.369-0.863-2.475-1.927-2.475
			c-1.063,0-1.923,1.105-1.923,2.475C518.501,707.336,519.362,708.446,520.425,708.446z"/>
		<path fill="#FFFFFF" d="M533.525,708.446c1.063,0,1.926-1.109,1.926-2.473c0-1.369-0.863-2.475-1.926-2.475
			s-1.925,1.105-1.925,2.475C531.601,707.336,532.463,708.446,533.525,708.446z"/>
		<path fill="#FFFFFF" d="M546.625,708.446c1.064,0,1.928-1.109,1.928-2.473c0-1.369-0.863-2.475-1.928-2.475
			c-1.063,0-1.923,1.105-1.923,2.475C544.702,707.336,545.563,708.446,546.625,708.446z"/>
		<path fill="#FFFFFF" d="M559.725,708.446c1.063,0,1.928-1.109,1.928-2.473c0-1.369-0.866-2.475-1.928-2.475
			s-1.922,1.105-1.922,2.475C557.803,707.336,558.662,708.446,559.725,708.446z"/>
		<path fill="#FFFFFF" d="M572.825,708.446c1.064,0,1.926-1.109,1.926-2.473c0-1.369-0.861-2.475-1.926-2.475
			c-1.063,0-1.924,1.105-1.924,2.475C570.901,707.336,571.762,708.446,572.825,708.446z"/>
		<path fill="#FFFFFF" d="M585.924,708.446c1.064,0,1.93-1.109,1.93-2.473c0-1.369-0.865-2.475-1.93-2.475
			c-1.061,0-1.926,1.105-1.926,2.475C583.999,707.336,584.864,708.446,585.924,708.446z"/>
		<path fill="#FFFFFF" d="M599.022,708.446c1.064,0,1.93-1.109,1.93-2.473c0-1.369-0.865-2.475-1.93-2.475
			c-1.061,0-1.922,1.105-1.922,2.475C597.1,707.336,597.961,708.446,599.022,708.446z"/>
		<path fill="#FFFFFF" d="M612.124,708.446c1.063,0,1.926-1.109,1.926-2.473c0-1.369-0.863-2.475-1.926-2.475
			c-1.061,0-1.922,1.105-1.922,2.475C610.202,707.336,611.063,708.446,612.124,708.446z"/>
		<path fill="#FFFFFF" d="M625.223,708.446c1.063,0,1.928-1.109,1.928-2.473c0-1.369-0.865-2.475-1.928-2.475
			c-1.059,0-1.924,1.105-1.924,2.475C623.299,707.336,624.165,708.446,625.223,708.446z"/>
		<path fill="#FFFFFF" d="M638.323,708.446c1.064,0,1.93-1.109,1.93-2.473c0-1.369-0.865-2.475-1.93-2.475
			c-1.061,0-1.922,1.105-1.922,2.475C636.401,707.336,637.262,708.446,638.323,708.446z"/>
		<path fill="#FFFFFF" d="M651.422,708.446c1.063,0,1.928-1.109,1.928-2.473c0-1.369-0.865-2.475-1.928-2.475
			s-1.922,1.105-1.922,2.475C649.5,707.336,650.36,708.446,651.422,708.446z"/>
		<path fill="#FFFFFF" d="M664.524,708.446c1.063,0,1.924-1.109,1.924-2.473c0-1.369-0.861-2.475-1.924-2.475
			s-1.926,1.105-1.926,2.475C662.598,707.336,663.461,708.446,664.524,708.446z"/>
		<path fill="#FFFFFF" d="M677.622,708.446c1.066,0,1.93-1.109,1.93-2.473c0-1.369-0.863-2.475-1.93-2.475
			c-1.061,0-1.922,1.105-1.922,2.475C675.7,707.336,676.561,708.446,677.622,708.446z"/>
		<path fill="#FFFFFF" d="M690.723,708.446c1.063,0,1.928-1.109,1.928-2.473c0-1.369-0.865-2.475-1.928-2.475
			s-1.922,1.105-1.922,2.475C688.801,707.336,689.661,708.446,690.723,708.446z"/>
		<path fill="#FFFFFF" d="M703.823,708.446c1.064,0,1.926-1.109,1.926-2.473c0-1.369-0.861-2.475-1.926-2.475
			c-1.063,0-1.924,1.105-1.924,2.475C701.899,707.336,702.76,708.446,703.823,708.446z"/>
		<path fill="#FFFFFF" d="M716.922,708.446c1.064,0,1.93-1.109,1.93-2.473c0-1.369-0.865-2.475-1.93-2.475
			c-1.061,0-1.926,1.105-1.926,2.475C714.997,707.336,715.862,708.446,716.922,708.446z"/>
		<path fill="#FFFFFF" d="M730.02,708.446c1.064,0,1.93-1.109,1.93-2.473c0-1.369-0.865-2.475-1.93-2.475
			c-1.061,0-1.922,1.105-1.922,2.475C728.098,707.336,728.959,708.446,730.02,708.446z"/>
		<path fill="#FFFFFF" d="M743.122,708.446c1.063,0,1.926-1.109,1.926-2.473c0-1.369-0.863-2.475-1.926-2.475
			c-1.061,0-1.922,1.105-1.922,2.475C741.2,707.336,742.061,708.446,743.122,708.446z"/>
		<path fill="#FFFFFF" d="M756.221,708.446c1.063,0,1.928-1.109,1.928-2.473c0-1.369-0.865-2.475-1.928-2.475
			c-1.059,0-1.924,1.105-1.924,2.475C754.297,707.336,755.163,708.446,756.221,708.446z"/>
		<path fill="#FFFFFF" d="M769.321,708.446c1.064,0,1.93-1.109,1.93-2.473c0-1.369-0.865-2.475-1.93-2.475
			c-1.061,0-1.922,1.105-1.922,2.475C767.399,707.336,768.26,708.446,769.321,708.446z"/>
		<path fill="#FFFFFF" d="M782.42,708.446c1.063,0,1.928-1.109,1.928-2.473c0-1.369-0.865-2.475-1.928-2.475
			s-1.922,1.105-1.922,2.475C780.499,707.336,781.358,708.446,782.42,708.446z"/>
		<path fill="#FFFFFF" d="M795.522,708.446c1.063,0,1.924-1.109,1.924-2.473c0-1.369-0.861-2.475-1.924-2.475
			s-1.924,1.105-1.924,2.475C793.598,707.336,794.459,708.446,795.522,708.446z"/>
		<path fill="#FFFFFF" d="M808.62,708.446c1.066,0,1.93-1.109,1.93-2.473c0-1.369-0.863-2.475-1.93-2.475
			c-1.059,0-1.922,1.105-1.922,2.475C806.698,707.336,807.561,708.446,808.62,708.446z"/>
		<path fill="#FFFFFF" d="M402.527,725.288c1.063,0,1.927-1.109,1.927-2.475c0-1.369-0.865-2.473-1.927-2.473
			s-1.923,1.104-1.923,2.473C400.604,724.178,401.465,725.288,402.527,725.288z"/>
		<path fill="#FFFFFF" d="M415.627,725.288c1.064,0,1.927-1.109,1.927-2.475c0-1.369-0.863-2.473-1.927-2.473
			c-1.063,0-1.923,1.104-1.923,2.473C413.704,724.178,414.564,725.288,415.627,725.288z"/>
		<path fill="#FFFFFF" d="M428.725,725.288c1.065,0,1.929-1.109,1.929-2.475c0-1.369-0.863-2.473-1.929-2.473
			c-1.062,0-1.922,1.104-1.922,2.473C426.803,724.178,427.664,725.288,428.725,725.288z"/>
		<path fill="#FFFFFF" d="M441.826,725.288c1.064,0,1.927-1.109,1.927-2.475c0-1.369-0.863-2.473-1.927-2.473
			c-1.062,0-1.923,1.104-1.923,2.473C439.903,724.178,440.765,725.288,441.826,725.288z"/>
		<path fill="#FFFFFF" d="M454.925,725.288c1.064,0,1.927-1.109,1.927-2.475c0-1.369-0.863-2.473-1.927-2.473
			c-1.061,0-1.923,1.104-1.923,2.473C453.002,724.178,453.864,725.288,454.925,725.288z"/>
		<path fill="#FFFFFF" d="M468.025,725.288c1.064,0,1.927-1.109,1.927-2.475c0-1.369-0.863-2.473-1.927-2.473
			c-1.061,0-1.923,1.104-1.923,2.473C466.102,724.178,466.964,725.288,468.025,725.288z"/>
		<path fill="#FFFFFF" d="M481.125,725.288c1.064,0,1.927-1.109,1.927-2.475c0-1.369-0.863-2.473-1.927-2.473
			c-1.061,0-1.923,1.104-1.923,2.473C479.201,724.178,480.063,725.288,481.125,725.288z"/>
		<path fill="#FFFFFF" d="M494.226,725.288c1.063,0,1.927-1.109,1.927-2.475c0-1.369-0.865-2.473-1.927-2.473
			c-1.063,0-1.923,1.104-1.923,2.473C492.302,724.178,493.163,725.288,494.226,725.288z"/>
		<path fill="#FFFFFF" d="M507.325,725.288c1.064,0,1.927-1.109,1.927-2.475c0-1.369-0.863-2.473-1.927-2.473
			c-1.063,0-1.923,1.104-1.923,2.473C505.402,724.178,506.262,725.288,507.325,725.288z"/>
		<path fill="#FFFFFF" d="M520.425,725.288c1.064,0,1.927-1.109,1.927-2.475c0-1.369-0.863-2.473-1.927-2.473
			c-1.063,0-1.923,1.104-1.923,2.473C518.501,724.178,519.362,725.288,520.425,725.288z"/>
		<path fill="#FFFFFF" d="M533.525,725.288c1.063,0,1.926-1.109,1.926-2.475c0-1.369-0.863-2.473-1.926-2.473
			s-1.925,1.104-1.925,2.473C531.601,724.178,532.463,725.288,533.525,725.288z"/>
		<path fill="#FFFFFF" d="M546.625,725.288c1.064,0,1.928-1.109,1.928-2.475c0-1.369-0.863-2.473-1.928-2.473
			c-1.063,0-1.923,1.104-1.923,2.473C544.702,724.178,545.563,725.288,546.625,725.288z"/>
		<path fill="#FFFFFF" d="M559.725,725.288c1.063,0,1.928-1.109,1.928-2.475c0-1.369-0.866-2.473-1.928-2.473
			s-1.922,1.104-1.922,2.473C557.803,724.178,558.662,725.288,559.725,725.288z"/>
		<path fill="#FFFFFF" d="M572.825,725.288c1.064,0,1.926-1.109,1.926-2.475c0-1.369-0.861-2.473-1.926-2.473
			c-1.063,0-1.924,1.104-1.924,2.473C570.901,724.178,571.762,725.288,572.825,725.288z"/>
		<path fill="#FFFFFF" d="M585.924,725.288c1.064,0,1.93-1.109,1.93-2.475c0-1.369-0.865-2.473-1.93-2.473
			c-1.061,0-1.926,1.104-1.926,2.473C583.999,724.178,584.864,725.288,585.924,725.288z"/>
		<path fill="#FFFFFF" d="M599.022,725.288c1.064,0,1.93-1.109,1.93-2.475c0-1.369-0.865-2.473-1.93-2.473
			c-1.061,0-1.922,1.104-1.922,2.473C597.1,724.178,597.961,725.288,599.022,725.288z"/>
		<path fill="#FFFFFF" d="M612.124,725.288c1.063,0,1.926-1.109,1.926-2.475c0-1.369-0.863-2.473-1.926-2.473
			c-1.061,0-1.922,1.104-1.922,2.473C610.202,724.178,611.063,725.288,612.124,725.288z"/>
		<path fill="#FFFFFF" d="M625.223,725.288c1.063,0,1.928-1.109,1.928-2.475c0-1.369-0.865-2.473-1.928-2.473
			c-1.059,0-1.924,1.104-1.924,2.473C623.299,724.178,624.165,725.288,625.223,725.288z"/>
		<path fill="#FFFFFF" d="M638.323,725.288c1.064,0,1.93-1.109,1.93-2.475c0-1.369-0.865-2.473-1.93-2.473
			c-1.061,0-1.922,1.104-1.922,2.473C636.401,724.178,637.262,725.288,638.323,725.288z"/>
		<path fill="#FFFFFF" d="M651.422,725.288c1.063,0,1.928-1.109,1.928-2.475c0-1.369-0.865-2.473-1.928-2.473
			s-1.922,1.104-1.922,2.473C649.5,724.178,650.36,725.288,651.422,725.288z"/>
		<path fill="#FFFFFF" d="M664.524,725.288c1.063,0,1.924-1.109,1.924-2.475c0-1.369-0.861-2.473-1.924-2.473
			s-1.926,1.104-1.926,2.473C662.598,724.178,663.461,725.288,664.524,725.288z"/>
		<path fill="#FFFFFF" d="M677.622,725.288c1.066,0,1.93-1.109,1.93-2.475c0-1.369-0.863-2.473-1.93-2.473
			c-1.061,0-1.922,1.104-1.922,2.473C675.7,724.178,676.561,725.288,677.622,725.288z"/>
		<path fill="#FFFFFF" d="M690.723,725.288c1.063,0,1.928-1.109,1.928-2.475c0-1.369-0.865-2.473-1.928-2.473
			s-1.922,1.104-1.922,2.473C688.801,724.178,689.661,725.288,690.723,725.288z"/>
		<path fill="#FFFFFF" d="M703.823,725.288c1.064,0,1.926-1.109,1.926-2.475c0-1.369-0.861-2.473-1.926-2.473
			c-1.063,0-1.924,1.104-1.924,2.473C701.899,724.178,702.76,725.288,703.823,725.288z"/>
		<path fill="#FFFFFF" d="M716.922,725.288c1.064,0,1.93-1.109,1.93-2.475c0-1.369-0.865-2.473-1.93-2.473
			c-1.061,0-1.926,1.104-1.926,2.473C714.997,724.178,715.862,725.288,716.922,725.288z"/>
		<path fill="#FFFFFF" d="M730.02,725.288c1.064,0,1.93-1.109,1.93-2.475c0-1.369-0.865-2.473-1.93-2.473
			c-1.061,0-1.922,1.104-1.922,2.473C728.098,724.178,728.959,725.288,730.02,725.288z"/>
		<path fill="#FFFFFF" d="M743.122,725.288c1.063,0,1.926-1.109,1.926-2.475c0-1.369-0.863-2.473-1.926-2.473
			c-1.061,0-1.922,1.104-1.922,2.473C741.2,724.178,742.061,725.288,743.122,725.288z"/>
		<path fill="#FFFFFF" d="M756.221,725.288c1.063,0,1.928-1.109,1.928-2.475c0-1.369-0.865-2.473-1.928-2.473
			c-1.059,0-1.924,1.104-1.924,2.473C754.297,724.178,755.163,725.288,756.221,725.288z"/>
		<path fill="#FFFFFF" d="M769.321,725.288c1.064,0,1.93-1.109,1.93-2.475c0-1.369-0.865-2.473-1.93-2.473
			c-1.061,0-1.922,1.104-1.922,2.473C767.399,724.178,768.26,725.288,769.321,725.288z"/>
		<path fill="#FFFFFF" d="M782.42,725.288c1.063,0,1.928-1.109,1.928-2.475c0-1.369-0.865-2.473-1.928-2.473
			s-1.922,1.104-1.922,2.473C780.499,724.178,781.358,725.288,782.42,725.288z"/>
		<path fill="#FFFFFF" d="M795.522,725.288c1.063,0,1.924-1.109,1.924-2.475c0-1.369-0.861-2.473-1.924-2.473
			s-1.924,1.104-1.924,2.473C793.598,724.178,794.459,725.288,795.522,725.288z"/>
		<path fill="#FFFFFF" d="M808.62,725.288c1.066,0,1.93-1.109,1.93-2.475c0-1.369-0.863-2.473-1.93-2.473
			c-1.059,0-1.922,1.104-1.922,2.473C806.698,724.178,807.561,725.288,808.62,725.288z"/>
		<path fill="#FFFFFF" d="M402.527,742.129c1.063,0,1.927-1.109,1.927-2.477c0-1.365-0.865-2.473-1.927-2.473
			s-1.923,1.107-1.923,2.473C400.604,741.02,401.465,742.129,402.527,742.129z"/>
		<path fill="#FFFFFF" d="M415.627,742.129c1.064,0,1.927-1.109,1.927-2.477c0-1.365-0.863-2.473-1.927-2.473
			c-1.063,0-1.923,1.107-1.923,2.473C413.704,741.02,414.564,742.129,415.627,742.129z"/>
		<path fill="#FFFFFF" d="M428.725,742.129c1.065,0,1.929-1.109,1.929-2.477c0-1.365-0.863-2.473-1.929-2.473
			c-1.062,0-1.922,1.107-1.922,2.473C426.803,741.02,427.664,742.129,428.725,742.129z"/>
		<path fill="#FFFFFF" d="M441.826,742.129c1.064,0,1.927-1.109,1.927-2.477c0-1.365-0.863-2.473-1.927-2.473
			c-1.062,0-1.923,1.107-1.923,2.473C439.903,741.02,440.765,742.129,441.826,742.129z"/>
		<path fill="#FFFFFF" d="M454.925,742.129c1.064,0,1.927-1.109,1.927-2.477c0-1.365-0.863-2.473-1.927-2.473
			c-1.061,0-1.923,1.107-1.923,2.473C453.002,741.02,453.864,742.129,454.925,742.129z"/>
		<path fill="#FFFFFF" d="M468.025,742.129c1.064,0,1.927-1.109,1.927-2.477c0-1.365-0.863-2.473-1.927-2.473
			c-1.061,0-1.923,1.107-1.923,2.473C466.102,741.02,466.964,742.129,468.025,742.129z"/>
		<path fill="#FFFFFF" d="M481.125,742.129c1.064,0,1.927-1.109,1.927-2.477c0-1.365-0.863-2.473-1.927-2.473
			c-1.061,0-1.923,1.107-1.923,2.473C479.201,741.02,480.063,742.129,481.125,742.129z"/>
		<path fill="#FFFFFF" d="M494.226,742.129c1.063,0,1.927-1.109,1.927-2.477c0-1.365-0.865-2.473-1.927-2.473
			c-1.063,0-1.923,1.107-1.923,2.473C492.302,741.02,493.163,742.129,494.226,742.129z"/>
		<path fill="#FFFFFF" d="M507.325,742.129c1.064,0,1.927-1.109,1.927-2.477c0-1.365-0.863-2.473-1.927-2.473
			c-1.063,0-1.923,1.107-1.923,2.473C505.402,741.02,506.262,742.129,507.325,742.129z"/>
		<path fill="#FFFFFF" d="M520.425,742.129c1.064,0,1.927-1.109,1.927-2.477c0-1.365-0.863-2.473-1.927-2.473
			c-1.063,0-1.923,1.107-1.923,2.473C518.501,741.02,519.362,742.129,520.425,742.129z"/>
		<ellipse fill="#FFFFFF" cx="533.525" cy="739.655" rx="1.926" ry="2.475"/>
		<path fill="#FFFFFF" d="M546.625,742.129c1.064,0,1.928-1.109,1.928-2.477c0-1.365-0.863-2.473-1.928-2.473
			c-1.063,0-1.923,1.107-1.923,2.473C544.702,741.02,545.563,742.129,546.625,742.129z"/>
		<path fill="#FFFFFF" d="M559.725,742.129c1.063,0,1.928-1.109,1.928-2.477c0-1.365-0.866-2.473-1.928-2.473
			s-1.922,1.107-1.922,2.473C557.803,741.02,558.662,742.129,559.725,742.129z"/>
		<ellipse fill="#FFFFFF" cx="572.825" cy="739.655" rx="1.926" ry="2.475"/>
		<path fill="#FFFFFF" d="M585.924,742.129c1.064,0,1.93-1.109,1.93-2.477c0-1.365-0.865-2.473-1.93-2.473
			c-1.061,0-1.926,1.107-1.926,2.473C583.999,741.02,584.864,742.129,585.924,742.129z"/>
		<path fill="#FFFFFF" d="M599.022,742.129c1.064,0,1.93-1.109,1.93-2.477c0-1.365-0.865-2.473-1.93-2.473
			c-1.061,0-1.922,1.107-1.922,2.473C597.1,741.02,597.961,742.129,599.022,742.129z"/>
		<path fill="#FFFFFF" d="M612.124,742.129c1.063,0,1.926-1.109,1.926-2.477c0-1.365-0.863-2.473-1.926-2.473
			c-1.061,0-1.922,1.107-1.922,2.473C610.202,741.02,611.063,742.129,612.124,742.129z"/>
		<path fill="#FFFFFF" d="M625.223,742.129c1.063,0,1.928-1.109,1.928-2.477c0-1.365-0.865-2.473-1.928-2.473
			c-1.059,0-1.924,1.107-1.924,2.473C623.299,741.02,624.165,742.129,625.223,742.129z"/>
		<path fill="#FFFFFF" d="M638.323,742.129c1.064,0,1.93-1.109,1.93-2.477c0-1.365-0.865-2.473-1.93-2.473
			c-1.061,0-1.922,1.107-1.922,2.473C636.401,741.02,637.262,742.129,638.323,742.129z"/>
		<path fill="#FFFFFF" d="M651.422,742.129c1.063,0,1.928-1.109,1.928-2.477c0-1.365-0.865-2.473-1.928-2.473
			s-1.922,1.107-1.922,2.473C649.5,741.02,650.36,742.129,651.422,742.129z"/>
		<ellipse fill="#FFFFFF" cx="664.524" cy="739.655" rx="1.924" ry="2.475"/>
		<path fill="#FFFFFF" d="M677.622,742.129c1.066,0,1.93-1.109,1.93-2.477c0-1.365-0.863-2.473-1.93-2.473
			c-1.061,0-1.922,1.107-1.922,2.473C675.7,741.02,676.561,742.129,677.622,742.129z"/>
		<path fill="#FFFFFF" d="M690.723,742.129c1.063,0,1.928-1.109,1.928-2.477c0-1.365-0.865-2.473-1.928-2.473
			s-1.922,1.107-1.922,2.473C688.801,741.02,689.661,742.129,690.723,742.129z"/>
		<ellipse fill="#FFFFFF" cx="703.823" cy="739.655" rx="1.926" ry="2.475"/>
		<path fill="#FFFFFF" d="M716.922,742.129c1.064,0,1.93-1.109,1.93-2.477c0-1.365-0.865-2.473-1.93-2.473
			c-1.061,0-1.926,1.107-1.926,2.473C714.997,741.02,715.862,742.129,716.922,742.129z"/>
		<path fill="#FFFFFF" d="M730.02,742.129c1.064,0,1.93-1.109,1.93-2.477c0-1.365-0.865-2.473-1.93-2.473
			c-1.061,0-1.922,1.107-1.922,2.473C728.098,741.02,728.959,742.129,730.02,742.129z"/>
		<path fill="#FFFFFF" d="M743.122,742.129c1.063,0,1.926-1.109,1.926-2.477c0-1.365-0.863-2.473-1.926-2.473
			c-1.061,0-1.922,1.107-1.922,2.473C741.2,741.02,742.061,742.129,743.122,742.129z"/>
		<path fill="#FFFFFF" d="M756.221,742.129c1.063,0,1.928-1.109,1.928-2.477c0-1.365-0.865-2.473-1.928-2.473
			c-1.059,0-1.924,1.107-1.924,2.473C754.297,741.02,755.163,742.129,756.221,742.129z"/>
		<path fill="#FFFFFF" d="M769.321,742.129c1.064,0,1.93-1.109,1.93-2.477c0-1.365-0.865-2.473-1.93-2.473
			c-1.061,0-1.922,1.107-1.922,2.473C767.399,741.02,768.26,742.129,769.321,742.129z"/>
		<path fill="#FFFFFF" d="M782.42,742.129c1.063,0,1.928-1.109,1.928-2.477c0-1.365-0.865-2.473-1.928-2.473
			s-1.922,1.107-1.922,2.473C780.499,741.02,781.358,742.129,782.42,742.129z"/>
		<ellipse fill="#FFFFFF" cx="795.522" cy="739.655" rx="1.924" ry="2.475"/>
		<path fill="#FFFFFF" d="M808.62,742.129c1.066,0,1.93-1.109,1.93-2.477c0-1.365-0.863-2.473-1.93-2.473
			c-1.059,0-1.922,1.107-1.922,2.473C806.698,741.02,807.561,742.129,808.62,742.129z"/>
		<path fill="#FFFFFF" d="M402.527,758.971c1.063,0,1.927-1.111,1.927-2.475c0-1.369-0.865-2.475-1.927-2.475
			s-1.923,1.105-1.923,2.475C400.604,757.86,401.465,758.971,402.527,758.971z"/>
		<path fill="#FFFFFF" d="M415.627,758.971c1.064,0,1.927-1.111,1.927-2.475c0-1.369-0.863-2.475-1.927-2.475
			c-1.063,0-1.923,1.105-1.923,2.475C413.704,757.86,414.564,758.971,415.627,758.971z"/>
		<path fill="#FFFFFF" d="M428.725,758.971c1.065,0,1.929-1.111,1.929-2.475c0-1.369-0.863-2.475-1.929-2.475
			c-1.062,0-1.922,1.105-1.922,2.475C426.803,757.86,427.664,758.971,428.725,758.971z"/>
		<path fill="#FFFFFF" d="M441.826,758.971c1.064,0,1.927-1.111,1.927-2.475c0-1.369-0.863-2.475-1.927-2.475
			c-1.062,0-1.923,1.105-1.923,2.475C439.903,757.86,440.765,758.971,441.826,758.971z"/>
		<path fill="#FFFFFF" d="M454.925,758.971c1.064,0,1.927-1.111,1.927-2.475c0-1.369-0.863-2.475-1.927-2.475
			c-1.061,0-1.923,1.105-1.923,2.475C453.002,757.86,453.864,758.971,454.925,758.971z"/>
		<path fill="#FFFFFF" d="M468.025,758.971c1.064,0,1.927-1.111,1.927-2.475c0-1.369-0.863-2.475-1.927-2.475
			c-1.061,0-1.923,1.105-1.923,2.475C466.102,757.86,466.964,758.971,468.025,758.971z"/>
		<path fill="#FFFFFF" d="M481.125,758.971c1.064,0,1.927-1.111,1.927-2.475c0-1.369-0.863-2.475-1.927-2.475
			c-1.061,0-1.923,1.105-1.923,2.475C479.201,757.86,480.063,758.971,481.125,758.971z"/>
		<path fill="#FFFFFF" d="M494.226,758.971c1.063,0,1.927-1.111,1.927-2.475c0-1.369-0.865-2.475-1.927-2.475
			c-1.063,0-1.923,1.105-1.923,2.475C492.302,757.86,493.163,758.971,494.226,758.971z"/>
		<path fill="#FFFFFF" d="M507.325,758.971c1.064,0,1.927-1.111,1.927-2.475c0-1.369-0.863-2.475-1.927-2.475
			c-1.063,0-1.923,1.105-1.923,2.475C505.402,757.86,506.262,758.971,507.325,758.971z"/>
		<path fill="#FFFFFF" d="M520.425,758.971c1.064,0,1.927-1.111,1.927-2.475c0-1.369-0.863-2.475-1.927-2.475
			c-1.063,0-1.923,1.105-1.923,2.475C518.501,757.86,519.362,758.971,520.425,758.971z"/>
		<path fill="#FFFFFF" d="M533.525,758.971c1.063,0,1.926-1.111,1.926-2.475c0-1.369-0.863-2.475-1.926-2.475
			s-1.925,1.105-1.925,2.475C531.601,757.86,532.463,758.971,533.525,758.971z"/>
		<path fill="#FFFFFF" d="M546.625,758.971c1.064,0,1.928-1.111,1.928-2.475c0-1.369-0.863-2.475-1.928-2.475
			c-1.063,0-1.923,1.105-1.923,2.475C544.702,757.86,545.563,758.971,546.625,758.971z"/>
		<path fill="#FFFFFF" d="M559.725,758.971c1.063,0,1.928-1.111,1.928-2.475c0-1.369-0.866-2.475-1.928-2.475
			s-1.922,1.105-1.922,2.475C557.803,757.86,558.662,758.971,559.725,758.971z"/>
		<path fill="#FFFFFF" d="M572.825,758.971c1.064,0,1.926-1.111,1.926-2.475c0-1.369-0.861-2.475-1.926-2.475
			c-1.063,0-1.924,1.105-1.924,2.475C570.901,757.86,571.762,758.971,572.825,758.971z"/>
		<path fill="#FFFFFF" d="M585.924,758.971c1.064,0,1.93-1.111,1.93-2.475c0-1.369-0.865-2.475-1.93-2.475
			c-1.061,0-1.926,1.105-1.926,2.475C583.999,757.86,584.864,758.971,585.924,758.971z"/>
		<path fill="#FFFFFF" d="M599.022,758.971c1.064,0,1.93-1.111,1.93-2.475c0-1.369-0.865-2.475-1.93-2.475
			c-1.061,0-1.922,1.105-1.922,2.475C597.1,757.86,597.961,758.971,599.022,758.971z"/>
		<path fill="#FFFFFF" d="M612.124,758.971c1.063,0,1.926-1.111,1.926-2.475c0-1.369-0.863-2.475-1.926-2.475
			c-1.061,0-1.922,1.105-1.922,2.475C610.202,757.86,611.063,758.971,612.124,758.971z"/>
		<path fill="#FFFFFF" d="M625.223,758.971c1.063,0,1.928-1.111,1.928-2.475c0-1.369-0.865-2.475-1.928-2.475
			c-1.059,0-1.924,1.105-1.924,2.475C623.299,757.86,624.165,758.971,625.223,758.971z"/>
		<path fill="#FFFFFF" d="M638.323,758.971c1.064,0,1.93-1.111,1.93-2.475c0-1.369-0.865-2.475-1.93-2.475
			c-1.061,0-1.922,1.105-1.922,2.475C636.401,757.86,637.262,758.971,638.323,758.971z"/>
		<path fill="#FFFFFF" d="M651.422,758.971c1.063,0,1.928-1.111,1.928-2.475c0-1.369-0.865-2.475-1.928-2.475
			s-1.922,1.105-1.922,2.475C649.5,757.86,650.36,758.971,651.422,758.971z"/>
		<path fill="#FFFFFF" d="M664.524,758.971c1.063,0,1.924-1.111,1.924-2.475c0-1.369-0.861-2.475-1.924-2.475
			s-1.926,1.105-1.926,2.475C662.598,757.86,663.461,758.971,664.524,758.971z"/>
		<path fill="#FFFFFF" d="M677.622,758.971c1.066,0,1.93-1.111,1.93-2.475c0-1.369-0.863-2.475-1.93-2.475
			c-1.061,0-1.922,1.105-1.922,2.475C675.7,757.86,676.561,758.971,677.622,758.971z"/>
		<path fill="#FFFFFF" d="M690.723,758.971c1.063,0,1.928-1.111,1.928-2.475c0-1.369-0.865-2.475-1.928-2.475
			s-1.922,1.105-1.922,2.475C688.801,757.86,689.661,758.971,690.723,758.971z"/>
		<path fill="#FFFFFF" d="M703.823,758.971c1.064,0,1.926-1.111,1.926-2.475c0-1.369-0.861-2.475-1.926-2.475
			c-1.063,0-1.924,1.105-1.924,2.475C701.899,757.86,702.76,758.971,703.823,758.971z"/>
		<path fill="#FFFFFF" d="M716.922,758.971c1.064,0,1.93-1.111,1.93-2.475c0-1.369-0.865-2.475-1.93-2.475
			c-1.061,0-1.926,1.105-1.926,2.475C714.997,757.86,715.862,758.971,716.922,758.971z"/>
		<path fill="#FFFFFF" d="M730.02,758.971c1.064,0,1.93-1.111,1.93-2.475c0-1.369-0.865-2.475-1.93-2.475
			c-1.061,0-1.922,1.105-1.922,2.475C728.098,757.86,728.959,758.971,730.02,758.971z"/>
		<path fill="#FFFFFF" d="M743.122,758.971c1.063,0,1.926-1.111,1.926-2.475c0-1.369-0.863-2.475-1.926-2.475
			c-1.061,0-1.922,1.105-1.922,2.475C741.2,757.86,742.061,758.971,743.122,758.971z"/>
		<path fill="#FFFFFF" d="M756.221,758.971c1.063,0,1.928-1.111,1.928-2.475c0-1.369-0.865-2.475-1.928-2.475
			c-1.059,0-1.924,1.105-1.924,2.475C754.297,757.86,755.163,758.971,756.221,758.971z"/>
		<path fill="#FFFFFF" d="M769.321,758.971c1.064,0,1.93-1.111,1.93-2.475c0-1.369-0.865-2.475-1.93-2.475
			c-1.061,0-1.922,1.105-1.922,2.475C767.399,757.86,768.26,758.971,769.321,758.971z"/>
		<path fill="#FFFFFF" d="M782.42,758.971c1.063,0,1.928-1.111,1.928-2.475c0-1.369-0.865-2.475-1.928-2.475
			s-1.922,1.105-1.922,2.475C780.499,757.86,781.358,758.971,782.42,758.971z"/>
		<path fill="#FFFFFF" d="M795.522,758.971c1.063,0,1.924-1.111,1.924-2.475c0-1.369-0.861-2.475-1.924-2.475
			s-1.924,1.105-1.924,2.475C793.598,757.86,794.459,758.971,795.522,758.971z"/>
		<path fill="#FFFFFF" d="M808.62,758.971c1.066,0,1.93-1.111,1.93-2.475c0-1.369-0.863-2.475-1.93-2.475
			c-1.059,0-1.922,1.105-1.922,2.475C806.698,757.86,807.561,758.971,808.62,758.971z"/>
		<path fill="#FFFFFF" d="M402.527,775.811c1.063,0,1.927-1.109,1.927-2.473c0-1.371-0.865-2.477-1.927-2.477
			s-1.923,1.105-1.923,2.477C400.604,774.702,401.465,775.811,402.527,775.811z"/>
		<path fill="#FFFFFF" d="M415.627,775.811c1.064,0,1.927-1.109,1.927-2.473c0-1.371-0.863-2.477-1.927-2.477
			c-1.063,0-1.923,1.105-1.923,2.477C413.704,774.702,414.564,775.811,415.627,775.811z"/>
		<path fill="#FFFFFF" d="M428.725,775.811c1.065,0,1.929-1.109,1.929-2.473c0-1.371-0.863-2.477-1.929-2.477
			c-1.062,0-1.922,1.105-1.922,2.477C426.803,774.702,427.664,775.811,428.725,775.811z"/>
		<path fill="#FFFFFF" d="M441.826,775.811c1.064,0,1.927-1.109,1.927-2.473c0-1.371-0.863-2.477-1.927-2.477
			c-1.062,0-1.923,1.105-1.923,2.477C439.903,774.702,440.765,775.811,441.826,775.811z"/>
		<path fill="#FFFFFF" d="M454.925,775.811c1.064,0,1.927-1.109,1.927-2.473c0-1.371-0.863-2.477-1.927-2.477
			c-1.061,0-1.923,1.105-1.923,2.477C453.002,774.702,453.864,775.811,454.925,775.811z"/>
		<path fill="#FFFFFF" d="M468.025,775.811c1.064,0,1.927-1.109,1.927-2.473c0-1.371-0.863-2.477-1.927-2.477
			c-1.061,0-1.923,1.105-1.923,2.477C466.102,774.702,466.964,775.811,468.025,775.811z"/>
		<path fill="#FFFFFF" d="M481.125,775.811c1.064,0,1.927-1.109,1.927-2.473c0-1.371-0.863-2.477-1.927-2.477
			c-1.061,0-1.923,1.105-1.923,2.477C479.201,774.702,480.063,775.811,481.125,775.811z"/>
		<path fill="#FFFFFF" d="M494.226,775.811c1.063,0,1.927-1.109,1.927-2.473c0-1.371-0.865-2.477-1.927-2.477
			c-1.063,0-1.923,1.105-1.923,2.477C492.302,774.702,493.163,775.811,494.226,775.811z"/>
		<path fill="#FFFFFF" d="M507.325,775.811c1.064,0,1.927-1.109,1.927-2.473c0-1.371-0.863-2.477-1.927-2.477
			c-1.063,0-1.923,1.105-1.923,2.477C505.402,774.702,506.262,775.811,507.325,775.811z"/>
		<path fill="#FFFFFF" d="M520.425,775.811c1.064,0,1.927-1.109,1.927-2.473c0-1.371-0.863-2.477-1.927-2.477
			c-1.063,0-1.923,1.105-1.923,2.477C518.501,774.702,519.362,775.811,520.425,775.811z"/>
		<path fill="#FFFFFF" d="M533.525,775.811c1.063,0,1.926-1.109,1.926-2.473c0-1.371-0.863-2.477-1.926-2.477
			s-1.925,1.105-1.925,2.477C531.601,774.702,532.463,775.811,533.525,775.811z"/>
		<path fill="#FFFFFF" d="M546.625,775.811c1.064,0,1.928-1.109,1.928-2.473c0-1.371-0.863-2.477-1.928-2.477
			c-1.063,0-1.923,1.105-1.923,2.477C544.702,774.702,545.563,775.811,546.625,775.811z"/>
		<path fill="#FFFFFF" d="M559.725,775.811c1.063,0,1.928-1.109,1.928-2.473c0-1.371-0.866-2.477-1.928-2.477
			s-1.922,1.105-1.922,2.477C557.803,774.702,558.662,775.811,559.725,775.811z"/>
		<path fill="#FFFFFF" d="M572.825,775.811c1.064,0,1.926-1.109,1.926-2.473c0-1.371-0.861-2.477-1.926-2.477
			c-1.063,0-1.924,1.105-1.924,2.477C570.901,774.702,571.762,775.811,572.825,775.811z"/>
		<path fill="#FFFFFF" d="M585.924,775.811c1.064,0,1.93-1.109,1.93-2.473c0-1.371-0.865-2.477-1.93-2.477
			c-1.061,0-1.926,1.105-1.926,2.477C583.999,774.702,584.864,775.811,585.924,775.811z"/>
		<path fill="#FFFFFF" d="M599.022,775.811c1.064,0,1.93-1.109,1.93-2.473c0-1.371-0.865-2.477-1.93-2.477
			c-1.061,0-1.922,1.105-1.922,2.477C597.1,774.702,597.961,775.811,599.022,775.811z"/>
		<path fill="#FFFFFF" d="M612.124,775.811c1.063,0,1.926-1.109,1.926-2.473c0-1.371-0.863-2.477-1.926-2.477
			c-1.061,0-1.922,1.105-1.922,2.477C610.202,774.702,611.063,775.811,612.124,775.811z"/>
		<path fill="#FFFFFF" d="M625.223,775.811c1.063,0,1.928-1.109,1.928-2.473c0-1.371-0.865-2.477-1.928-2.477
			c-1.059,0-1.924,1.105-1.924,2.477C623.299,774.702,624.165,775.811,625.223,775.811z"/>
		<path fill="#FFFFFF" d="M638.323,775.811c1.064,0,1.93-1.109,1.93-2.473c0-1.371-0.865-2.477-1.93-2.477
			c-1.061,0-1.922,1.105-1.922,2.477C636.401,774.702,637.262,775.811,638.323,775.811z"/>
		<path fill="#FFFFFF" d="M651.422,775.811c1.063,0,1.928-1.109,1.928-2.473c0-1.371-0.865-2.477-1.928-2.477
			s-1.922,1.105-1.922,2.477C649.5,774.702,650.36,775.811,651.422,775.811z"/>
		<path fill="#FFFFFF" d="M664.524,775.811c1.063,0,1.924-1.109,1.924-2.473c0-1.371-0.861-2.477-1.924-2.477
			s-1.926,1.105-1.926,2.477C662.598,774.702,663.461,775.811,664.524,775.811z"/>
		<path fill="#FFFFFF" d="M677.622,775.811c1.066,0,1.93-1.109,1.93-2.473c0-1.371-0.863-2.477-1.93-2.477
			c-1.061,0-1.922,1.105-1.922,2.477C675.7,774.702,676.561,775.811,677.622,775.811z"/>
		<path fill="#FFFFFF" d="M690.723,775.811c1.063,0,1.928-1.109,1.928-2.473c0-1.371-0.865-2.477-1.928-2.477
			s-1.922,1.105-1.922,2.477C688.801,774.702,689.661,775.811,690.723,775.811z"/>
		<path fill="#FFFFFF" d="M703.823,775.811c1.064,0,1.926-1.109,1.926-2.473c0-1.371-0.861-2.477-1.926-2.477
			c-1.063,0-1.924,1.105-1.924,2.477C701.899,774.702,702.76,775.811,703.823,775.811z"/>
		<path fill="#FFFFFF" d="M716.922,775.811c1.064,0,1.93-1.109,1.93-2.473c0-1.371-0.865-2.477-1.93-2.477
			c-1.061,0-1.926,1.105-1.926,2.477C714.997,774.702,715.862,775.811,716.922,775.811z"/>
		<path fill="#FFFFFF" d="M730.02,775.811c1.064,0,1.93-1.109,1.93-2.473c0-1.371-0.865-2.477-1.93-2.477
			c-1.061,0-1.922,1.105-1.922,2.477C728.098,774.702,728.959,775.811,730.02,775.811z"/>
		<path fill="#FFFFFF" d="M743.122,775.811c1.063,0,1.926-1.109,1.926-2.473c0-1.371-0.863-2.477-1.926-2.477
			c-1.061,0-1.922,1.105-1.922,2.477C741.2,774.702,742.061,775.811,743.122,775.811z"/>
		<path fill="#FFFFFF" d="M756.221,775.811c1.063,0,1.928-1.109,1.928-2.473c0-1.371-0.865-2.477-1.928-2.477
			c-1.059,0-1.924,1.105-1.924,2.477C754.297,774.702,755.163,775.811,756.221,775.811z"/>
		<path fill="#FFFFFF" d="M769.321,775.811c1.064,0,1.93-1.109,1.93-2.473c0-1.371-0.865-2.477-1.93-2.477
			c-1.061,0-1.922,1.105-1.922,2.477C767.399,774.702,768.26,775.811,769.321,775.811z"/>
		<path fill="#FFFFFF" d="M782.42,775.811c1.063,0,1.928-1.109,1.928-2.473c0-1.371-0.865-2.477-1.928-2.477
			s-1.922,1.105-1.922,2.477C780.499,774.702,781.358,775.811,782.42,775.811z"/>
		<path fill="#FFFFFF" d="M795.522,775.811c1.063,0,1.924-1.109,1.924-2.473c0-1.371-0.861-2.477-1.924-2.477
			s-1.924,1.105-1.924,2.477C793.598,774.702,794.459,775.811,795.522,775.811z"/>
		<path fill="#FFFFFF" d="M808.62,775.811c1.066,0,1.93-1.109,1.93-2.473c0-1.371-0.863-2.477-1.93-2.477
			c-1.059,0-1.922,1.105-1.922,2.477C806.698,774.702,807.561,775.811,808.62,775.811z"/>
	</g>
</g>
</svg>
